<svg width="75" height="75" viewBox="0 0 75 75" fill="none" xmlns="http://www.w3.org/2000/svg">
<path d="M37.4715 69.9924C55.3425 69.9924 69.8298 55.5008 69.8298 37.6246C69.8298 19.7484 55.3425 5.25684 37.4715 5.25684C19.6006 5.25684 5.11328 19.7484 5.11328 37.6246C5.11328 55.5008 19.6006 69.9924 37.4715 69.9924Z" fill="white"/>
<path opacity="0.3" d="M48.2302 36.4373C51.0871 35.4339 53.0875 32.4354 53.0875 29.2432C53.0875 26.9077 52.1841 24.8598 50.3245 23.1463C48.4649 21.4329 45.8954 20.5762 42.6103 20.5762H33.0601H25.5161H18.8872L25.4985 26.8432H33.0542L25.5102 28.3688H18.8813L25.4926 34.6358H25.5043H33.0483L25.5043 36.1615V55.7723H43.4551C46.834 55.7723 49.597 54.8217 51.7382 52.8677C53.8794 50.9136 54.9295 48.3904 54.9295 45.339C54.9471 40.9615 52.6123 37.4349 48.2302 36.4373ZM35.2306 28.8618H40.7097C42.3757 28.8618 43.3788 30.006 43.3788 31.385C43.3788 32.717 42.4285 33.8613 40.2814 33.8613H35.2365V28.8618H35.2306ZM41.2787 47.3928H35.2306V41.6305H41.6131C43.6604 41.6305 44.7574 42.9156 44.7574 44.4882C44.7515 46.008 43.7073 47.3928 41.2787 47.3928Z" fill="#7427F1"/>
<path d="M48.7815 35.8817C51.6383 34.8782 53.6387 31.8797 53.6387 28.6875C53.6387 26.3521 52.7353 24.3041 50.8757 22.5907C49.0161 20.8772 46.4467 20.0205 43.1616 20.0205H33.6113H26.0673H19.4385L26.0498 26.2875H33.6055L26.0615 27.8132H19.4326L26.0439 34.0802H26.0556H33.5996L26.0556 35.6059V55.2167H44.0063C47.3853 55.2167 50.1483 54.266 52.2895 52.312C54.4307 50.358 55.4807 47.8347 55.4807 44.7834C55.4983 40.4117 53.1636 36.8851 48.7815 35.8817ZM35.7819 28.312H41.2609C42.927 28.312 43.9301 29.4562 43.9301 30.8352C43.9301 32.1672 42.9798 33.3115 40.8327 33.3115H35.7877V28.312H35.7819ZM41.83 46.8372H35.7819V41.0748H42.1643C44.2117 41.0748 45.3087 42.3599 45.3087 43.9325C45.3087 45.4582 44.2586 46.8372 41.83 46.8372Z" fill="#7427F1"/>
<path d="M37.4714 74.8798C16.9337 74.8798 0.220703 58.1678 0.220703 37.6181C0.220703 17.0685 16.9278 0.356445 37.4714 0.356445C58.015 0.356445 74.7221 17.0685 74.7221 37.6181C74.7221 58.1678 58.0092 74.8798 37.4714 74.8798ZM37.4714 2.73298C18.2418 2.73298 2.59654 18.3829 2.59654 37.6181C2.59654 56.8533 18.2418 72.5032 37.4714 72.5032C56.701 72.5032 72.3463 56.8533 72.3463 37.6181C72.3463 18.3829 56.701 2.73298 37.4714 2.73298Z" fill="white"/>
<path d="M37.4714 74.8798C16.9337 74.8798 0.220703 58.1678 0.220703 37.6181C0.220703 17.0685 16.9278 0.356445 37.4714 0.356445C58.015 0.356445 74.7221 17.0685 74.7221 37.6181C74.7221 58.1678 58.0092 74.8798 37.4714 74.8798ZM37.4714 2.73298C18.2418 2.73298 2.59654 18.3829 2.59654 37.6181C2.59654 56.8533 18.2418 72.5032 37.4714 72.5032C56.701 72.5032 72.3463 56.8533 72.3463 37.6181C72.3463 18.3829 56.701 2.73298 37.4714 2.73298Z" fill="white"/>
</svg>
