<svg width="550" height="331" viewBox="0 0 550 331" fill="none" xmlns="http://www.w3.org/2000/svg">
<g clip-path="url(#clip0)">
<path d="M35.6998 306.423C39.2326 305.122 41.6498 301.589 41.6498 297.684C41.6498 294.895 40.5341 292.292 38.3029 290.247C36.0717 288.202 32.9108 287.086 28.8202 287.086H17.2921H7.99527H0L7.99527 294.709H17.2921L8.1812 296.569H0L7.99527 304.192H17.1062L7.99527 306.051V329.851H29.9358C34.0264 329.851 37.3732 328.736 39.9763 326.319C42.5794 323.901 43.881 320.926 43.881 317.208C43.881 312.001 41.092 307.725 35.6998 306.423ZM19.8952 297.312H26.5889C28.6342 297.312 29.7498 298.614 29.7498 300.473C29.7498 302.147 28.6342 303.448 26.0311 303.448H19.8952V297.312ZM27.3327 319.811H19.8952V312.745H27.7045C30.1217 312.745 31.6092 314.233 31.6092 316.278C31.4233 318.137 30.3076 319.811 27.3327 319.811Z" fill="#7427F1"/>
<path d="M54.8513 326.876C51.3185 324.087 49.0872 319.253 49.0872 312.931V287.271H61.359V312.931C61.359 317.207 63.9621 319.253 67.309 319.253C70.6559 319.253 73.259 317.207 73.259 312.931V287.271H85.5308V312.931C85.5308 326.318 76.2339 330.781 67.309 330.781C62.6606 330.781 58.57 329.479 54.8513 326.876Z" fill="#7427F1"/>
<path d="M92.9682 287.086H105.054V329.851H92.9682V287.086Z" fill="#7427F1"/>
<path d="M113.049 330.037V287.271H125.135V318.695H145.402V330.223H113.049V330.037Z" fill="#7427F1"/>
<path d="M150.051 330.037V287.271H167.901C174.78 287.271 179.986 289.131 183.891 293.036C187.796 296.94 189.655 302.146 189.655 308.84C189.655 315.534 187.796 320.74 183.891 324.459C179.986 328.363 174.78 330.223 167.901 330.223H150.051V330.037ZM162.137 318.323H168.458C171.247 318.323 173.479 317.393 174.966 315.348C176.454 313.489 177.197 311.071 177.197 308.468C177.197 305.865 176.454 303.448 174.966 301.589C173.479 299.729 171.433 298.614 168.458 298.614H162.137V318.323Z" fill="#7427F1"/>
<path d="M195.605 330.037V287.271H227.586V298.428H207.691V303.262H226.099V314.418H207.691V319.253H227.4V330.409H195.605V330.037Z" fill="#7427F1"/>
<path d="M257.15 330.037L250.456 316.649H246.738V330.037H234.652V287.271H253.245C258.638 287.271 262.728 288.573 265.331 291.362C268.12 294.151 269.422 297.498 269.422 301.775C269.422 307.167 267.191 312.001 261.984 314.604L270.723 330.037H257.15ZM246.552 298.056V306.051H252.688C255.477 306.051 256.964 304.192 256.964 301.96C256.964 299.729 255.477 297.87 253.06 297.87H246.552V298.056Z" fill="#7427F1"/>
<path d="M282.809 323.715L288.573 314.79C292.664 318.137 296.755 319.811 301.217 319.811C304.006 319.811 305.308 319.067 305.308 317.579C305.308 316.65 304.192 315.72 302.147 314.976C301.589 314.79 300.845 314.604 299.544 314.232C297.126 313.489 294.709 312.745 292.85 311.815C288.016 309.398 285.598 305.679 285.598 300.473C285.598 296.569 287.086 293.222 290.247 290.619C293.408 288.015 297.312 286.714 302.333 286.714C308.283 286.714 313.489 288.387 318.137 291.92L312.745 301.217C311.444 300.287 309.77 299.543 307.725 298.986C305.68 298.428 303.82 298.056 302.333 298.056C299.544 298.056 298.242 298.986 298.242 300.101C298.242 301.403 299.544 302.147 301.589 302.704C305.865 304.006 308.655 304.936 309.77 305.493C315.534 307.725 318.509 311.629 318.509 317.022C318.509 321.112 316.836 324.459 313.675 327.062C310.514 329.665 306.237 330.967 300.845 330.967C293.78 330.781 287.83 328.364 282.809 323.715Z" fill="#7427F1"/>
<path d="M279.834 300.845V279.648H270.352V290.805L279.834 300.845Z" fill="#7427F1"/>
<g opacity="0.85">
<path opacity="0.85" d="M330.967 330.036V287.085H334.5V326.504H358.486V329.85H330.967V330.036Z" fill="#7427F1"/>
<path opacity="0.85" d="M365.179 330.036V287.085H391.024V290.432H368.712V306.608H389.537V309.955H368.712V326.689H391.024V330.036H365.179Z" fill="#7427F1"/>
<path opacity="0.85" d="M427.282 330.036L422.262 317.021H404.226L399.206 330.036H395.301L412.407 287.085H414.266L431.187 330.036H427.282ZM413.151 293.407L405.341 313.674H421.146L413.151 293.407Z" fill="#7427F1"/>
<path opacity="0.85" d="M440.112 324.458C436.021 320.368 433.976 314.976 433.976 308.654C433.976 302.146 436.207 296.94 440.483 292.849C444.76 288.573 449.966 286.527 456.288 286.527C459.821 286.527 463.168 287.271 466.515 288.759C469.675 290.246 472.279 292.105 474.138 294.523L471.535 296.754C468.002 292.477 462.238 289.874 456.288 289.874C451.082 289.874 446.619 291.734 443.087 295.266C439.554 298.799 437.694 303.262 437.694 308.654C437.694 314.046 439.368 318.508 442.901 322.041C446.433 325.574 450.71 327.247 456.102 327.247C462.052 327.247 467.444 324.83 472.093 320.182V310.141H454.986V306.794H475.439V321.483C470.233 327.619 463.725 330.594 455.916 330.594C449.408 330.594 444.202 328.549 440.112 324.458Z" fill="#7427F1"/>
<path opacity="0.85" d="M483.807 287.085H487.339V315.533C487.339 322.971 491.43 327.247 498.31 327.247C505.189 327.247 509.28 322.971 509.28 315.533V287.085H512.813V316.091C512.813 320.739 511.511 324.272 508.908 326.875C506.305 329.478 502.772 330.78 498.496 330.78C494.219 330.78 490.686 329.478 487.897 326.875C485.294 324.272 483.993 320.739 483.993 316.091V287.085H483.807Z" fill="#7427F1"/>
<path opacity="0.85" d="M523.969 330.036V287.085H549.814V290.432H527.502V306.608H548.327V309.955H527.502V326.689H549.814V330.036H523.969Z" fill="#7427F1"/>
</g>
<path d="M275 220.706C331.685 220.706 377.637 174.754 377.637 118.07C377.637 61.3847 331.685 15.4326 275 15.4326C218.315 15.4326 172.363 61.3847 172.363 118.07C172.363 174.754 218.315 220.706 275 220.706Z" fill="#7427F1"/>
<path opacity="0.2" d="M309.026 114.352C318.137 111.191 324.459 101.708 324.459 91.4815C324.459 84.044 321.67 77.5362 315.72 72.1441C309.77 66.7519 301.775 63.9629 291.176 63.9629H260.869H236.883H215.872L236.883 83.8581H260.869L236.883 88.6924H215.872L236.883 108.588H260.869L237.069 113.422V175.525H293.966C304.75 175.525 313.489 172.55 320.183 166.228C327.062 160.092 330.223 152.097 330.223 142.428C330.409 128.669 322.972 117.513 309.026 114.352ZM267.934 90.3659H285.227C290.433 90.3659 293.594 93.8987 293.594 98.3611C293.594 102.638 290.619 106.17 283.739 106.17H267.748V90.3659H267.934ZM287.086 148.936H267.934V130.714H288.201C294.709 130.714 298.242 134.805 298.242 139.825C298.056 144.659 294.709 148.936 287.086 148.936Z" fill="white"/>
<path d="M310.886 112.492C319.997 109.331 326.318 99.8486 326.318 89.6221C326.318 82.1846 323.529 75.6769 317.579 70.2847C311.629 64.8926 303.634 62.1035 293.036 62.1035H262.728H238.742H217.732L238.742 81.9987H262.728L238.742 86.8331H217.732L238.742 106.728H262.728L238.742 111.563V173.665H295.639C306.423 173.665 315.162 170.69 321.856 164.369C328.736 158.233 331.897 150.237 331.897 140.569C332.082 126.809 324.645 115.653 310.886 112.492ZM269.608 88.5065H286.9C292.106 88.5065 295.267 92.0393 295.267 96.5018C295.267 100.778 292.292 104.311 285.412 104.311H269.608V88.5065ZM288.759 147.262H269.608V129.041H289.875C296.383 129.041 299.915 133.131 299.915 138.152C299.73 142.986 296.569 147.262 288.759 147.262Z" fill="white"/>
<path d="M275 236.139C209.922 236.139 156.93 183.147 156.93 118.07C156.93 52.9919 209.922 0 275 0C340.078 0 393.07 52.9919 393.07 118.07C393.07 183.147 340.078 236.139 275 236.139ZM275 7.43746C214.013 7.43746 164.368 57.0825 164.368 118.07C164.368 179.057 214.013 228.702 275 228.702C335.987 228.702 385.632 179.057 385.632 118.07C385.632 57.0825 335.987 7.43746 275 7.43746Z" fill="#7427F1"/>
</g>
<defs>
<clipPath id="clip0">
<rect width="550" height="330.781" fill="white"/>
</clipPath>
</defs>
</svg>
