<svg width="326" height="41" viewBox="0 0 326 41" fill="none" xmlns="http://www.w3.org/2000/svg">
<path d="M20.0589 16.4402C21.7389 16.9202 23.0322 17.7735 23.9389 19.0002C24.8455 20.2002 25.2989 21.6669 25.2989 23.4002C25.2989 24.9735 24.8855 26.3469 24.0589 27.5202C23.2322 28.6935 22.0455 29.6002 20.4989 30.2402C18.9789 30.8802 17.1789 31.2002 15.0989 31.2002H0.898867V2.72019H14.7389C17.7255 2.72019 20.0989 3.38686 21.8589 4.72019C23.6189 6.05353 24.4989 7.85353 24.4989 10.1202C24.4989 11.5869 24.1122 12.8802 23.3389 14.0002C22.5655 15.1202 21.4722 15.9335 20.0589 16.4402ZM8.21887 13.8802H13.4589C14.8455 13.8802 15.8589 13.6669 16.4989 13.2402C17.1389 12.8135 17.4589 12.1335 17.4589 11.2002C17.4589 10.2402 17.1255 9.53353 16.4589 9.08019C15.8189 8.62686 14.8189 8.40019 13.4589 8.40019H8.21887V13.8802ZM14.2189 25.5202C15.6589 25.5202 16.6855 25.2935 17.2989 24.8402C17.9389 24.3869 18.2589 23.6269 18.2589 22.5602C18.2589 21.4669 17.9522 20.6935 17.3389 20.2402C16.7255 19.7869 15.6855 19.5602 14.2189 19.5602H8.21887V25.5202H14.2189ZM49.0248 10.8802V31.2002H41.9448V28.4802C40.6381 30.5069 38.7048 31.5202 36.1448 31.5202C33.5581 31.5202 31.6248 30.8002 30.3448 29.3602C29.0915 27.9202 28.4648 25.7202 28.4648 22.7602V10.8802H35.7048V22.9602C35.7048 24.9602 36.5715 25.9602 38.3048 25.9602C39.3181 25.9602 40.1315 25.6002 40.7448 24.8802C41.3848 24.1602 41.7048 23.2002 41.7048 22.0002V10.8802H49.0248ZM53.3504 10.8802H60.5904V31.2002H53.3504V10.8802ZM60.7104 0.920194V7.44019H53.1504V0.920194H60.7104ZM64.9129 1.76019H72.1529V31.2002H64.9129V1.76019ZM97.8754 1.76019V31.2002H90.7554V28.4402C90.1688 29.4002 89.3154 30.1602 88.1954 30.7202C87.0754 31.2535 85.8488 31.5202 84.5154 31.5202C82.7821 31.5202 81.2354 31.0802 79.8754 30.2002C78.5154 29.2935 77.4488 28.0402 76.6754 26.4402C75.9288 24.8135 75.5554 22.9469 75.5554 20.8402C75.5554 18.7602 75.9288 16.9202 76.6754 15.3202C77.4488 13.7202 78.5154 12.4935 79.8754 11.6402C81.2354 10.7602 82.7821 10.3202 84.5154 10.3202C85.7954 10.3202 86.9688 10.5869 88.0354 11.1202C89.1288 11.6535 89.9954 12.3735 90.6354 13.2802V1.76019H97.8754ZM86.7554 26.1202C88.0354 26.1202 89.0221 25.6802 89.7154 24.8002C90.4088 23.8935 90.7554 22.6002 90.7554 20.9202C90.7554 19.2935 90.3954 18.0402 89.6754 17.1602C88.9821 16.2535 88.0088 15.8002 86.7554 15.8002C85.4488 15.8002 84.4488 16.2402 83.7554 17.1202C83.0621 17.9735 82.7154 19.2135 82.7154 20.8402C82.7154 22.5202 83.0621 23.8269 83.7554 24.7602C84.4754 25.6669 85.4754 26.1202 86.7554 26.1202ZM120.939 21.7602H108.179C108.312 23.3335 108.765 24.4669 109.539 25.1602C110.312 25.8535 111.445 26.2002 112.939 26.2002C113.952 26.2002 114.965 26.0402 115.979 25.7202C116.992 25.3735 117.912 24.9069 118.739 24.3202L120.579 29.1202C119.565 29.8669 118.339 30.4535 116.899 30.8802C115.459 31.3069 114.019 31.5202 112.579 31.5202C110.259 31.5202 108.245 31.0935 106.539 30.2402C104.832 29.3869 103.525 28.1735 102.619 26.6002C101.712 25.0002 101.259 23.1202 101.259 20.9602C101.259 18.9069 101.685 17.0802 102.539 15.4802C103.419 13.8535 104.619 12.5869 106.139 11.6802C107.685 10.7735 109.445 10.3202 111.419 10.3202C113.339 10.3202 115.019 10.7469 116.459 11.6002C117.899 12.4535 119.005 13.6802 119.779 15.2802C120.552 16.8535 120.939 18.6935 120.939 20.8002V21.7602ZM111.619 15.2802C109.832 15.2802 108.712 16.3202 108.259 18.4002H114.739C114.472 16.3202 113.432 15.2802 111.619 15.2802ZM137.128 10.4002C138.115 10.4002 138.875 10.5469 139.408 10.8402V17.4402C138.261 16.9069 137.155 16.6402 136.088 16.6402C133.048 16.6402 131.528 18.0935 131.528 21.0002V31.2002H124.288V16.7202C124.288 14.5335 124.181 12.5869 123.968 10.8802H130.768L131.208 14.2802C131.688 13.0269 132.461 12.0669 133.528 11.4002C134.595 10.7335 135.795 10.4002 137.128 10.4002ZM150.353 2.72019V7.36019C150.353 9.12019 150.033 10.7069 149.393 12.1202C148.78 13.5069 147.713 14.9469 146.193 16.4402L143.513 14.2802C144.26 13.5069 144.847 12.8002 145.273 12.1602C145.7 11.4935 146.007 10.8269 146.193 10.1602H142.793V2.72019H150.353ZM161.511 31.5202C157.458 31.5202 154.258 30.7069 151.911 29.0802L153.751 24.1602C154.845 24.9069 156.085 25.4935 157.471 25.9202C158.858 26.3202 160.218 26.5202 161.551 26.5202C162.378 26.5202 163.018 26.4002 163.471 26.1602C163.925 25.9202 164.151 25.5869 164.151 25.1602C164.151 24.7869 163.978 24.4935 163.631 24.2802C163.311 24.0402 162.685 23.8269 161.751 23.6402L158.471 22.8802C156.391 22.4535 154.885 21.7869 153.951 20.8802C153.045 19.9469 152.591 18.6669 152.591 17.0402C152.591 15.7335 152.978 14.5735 153.751 13.5602C154.525 12.5469 155.591 11.7602 156.951 11.2002C158.338 10.6135 159.925 10.3202 161.711 10.3202C163.178 10.3202 164.618 10.5335 166.031 10.9602C167.445 11.3869 168.765 11.9869 169.991 12.7602L168.071 17.5602C167.005 16.8669 165.911 16.3335 164.791 15.9602C163.671 15.5869 162.618 15.4002 161.631 15.4002C160.831 15.4002 160.205 15.5335 159.751 15.8002C159.298 16.0402 159.071 16.4002 159.071 16.8802C159.071 17.1735 159.205 17.4135 159.471 17.6002C159.738 17.7602 160.245 17.9335 160.991 18.1202L164.391 18.8802C166.551 19.3869 168.098 20.1335 169.031 21.1202C169.991 22.0802 170.471 23.4002 170.471 25.0802C170.471 27.0802 169.671 28.6535 168.071 29.8002C166.498 30.9469 164.311 31.5202 161.511 31.5202ZM185.586 2.72019H193.106V25.1202H205.146V31.2002H185.586V2.72019ZM226.876 21.7602H214.116C214.249 23.3335 214.703 24.4669 215.476 25.1602C216.249 25.8535 217.383 26.2002 218.876 26.2002C219.889 26.2002 220.903 26.0402 221.916 25.7202C222.929 25.3735 223.849 24.9069 224.676 24.3202L226.516 29.1202C225.503 29.8669 224.276 30.4535 222.836 30.8802C221.396 31.3069 219.956 31.5202 218.516 31.5202C216.196 31.5202 214.183 31.0935 212.476 30.2402C210.769 29.3869 209.463 28.1735 208.556 26.6002C207.649 25.0002 207.196 23.1202 207.196 20.9602C207.196 18.9069 207.623 17.0802 208.476 15.4802C209.356 13.8535 210.556 12.5869 212.076 11.6802C213.623 10.7735 215.383 10.3202 217.356 10.3202C219.276 10.3202 220.956 10.7469 222.396 11.6002C223.836 12.4535 224.943 13.6802 225.716 15.2802C226.489 16.8535 226.876 18.6935 226.876 20.8002V21.7602ZM217.556 15.2802C215.769 15.2802 214.649 16.3202 214.196 18.4002H220.676C220.409 16.3202 219.369 15.2802 217.556 15.2802ZM251.625 10.8802V31.2002H244.505V28.4402C243.919 29.4002 243.065 30.1602 241.945 30.7202C240.825 31.2535 239.599 31.5202 238.265 31.5202C236.532 31.5202 234.985 31.0935 233.625 30.2402C232.265 29.3869 231.199 28.1735 230.425 26.6002C229.679 25.0002 229.305 23.1602 229.305 21.0802C229.305 18.9735 229.692 17.1069 230.465 15.4802C231.239 13.8535 232.305 12.5869 233.665 11.6802C235.025 10.7735 236.559 10.3202 238.265 10.3202C239.599 10.3202 240.812 10.6135 241.905 11.2002C243.025 11.7602 243.892 12.5202 244.505 13.4802V10.8802H251.625ZM240.505 26.1202C241.785 26.1202 242.772 25.6802 243.465 24.8002C244.159 23.9202 244.505 22.6535 244.505 21.0002C244.505 19.3202 244.159 18.0402 243.465 17.1602C242.772 16.2535 241.785 15.8002 240.505 15.8002C239.252 15.8002 238.265 16.2669 237.545 17.2002C236.825 18.1069 236.465 19.4002 236.465 21.0802C236.465 22.7069 236.812 23.9602 237.505 24.8402C238.199 25.6935 239.199 26.1202 240.505 26.1202ZM277.569 10.8802V29.9202C277.569 33.2535 276.569 35.7869 274.569 37.5202C272.569 39.2802 269.635 40.1602 265.769 40.1602C262.462 40.1602 259.595 39.5735 257.169 38.4002L258.249 33.1202C259.449 33.6535 260.675 34.0669 261.929 34.3602C263.209 34.6802 264.409 34.8402 265.529 34.8402C267.182 34.8402 268.395 34.4802 269.169 33.7602C269.969 33.0669 270.369 31.9735 270.369 30.4802V27.4802C269.702 28.3602 268.795 29.1069 267.649 29.7202C266.529 30.3335 265.329 30.6402 264.049 30.6402C262.315 30.6402 260.755 30.2269 259.369 29.4002C258.009 28.5469 256.942 27.3602 256.169 25.8402C255.395 24.2935 255.009 22.5069 255.009 20.4802C255.009 18.4802 255.395 16.7202 256.169 15.2002C256.942 13.6535 258.009 12.4535 259.369 11.6002C260.755 10.7469 262.315 10.3202 264.049 10.3202C265.409 10.3202 266.649 10.6002 267.769 11.1602C268.889 11.7202 269.755 12.4802 270.369 13.4402V10.8802H277.569ZM266.289 25.2402C267.569 25.2402 268.569 24.8269 269.289 24.0002C270.009 23.1469 270.369 21.9735 270.369 20.4802C270.369 19.0402 270.009 17.9069 269.289 17.0802C268.569 16.2269 267.569 15.8002 266.289 15.8002C265.009 15.8002 263.995 16.2135 263.249 17.0402C262.529 17.8669 262.169 19.0135 262.169 20.4802C262.169 21.9469 262.542 23.1069 263.289 23.9602C264.035 24.8135 265.035 25.2402 266.289 25.2402ZM302.267 10.8802V31.2002H295.187V28.4802C293.88 30.5069 291.947 31.5202 289.387 31.5202C286.8 31.5202 284.867 30.8002 283.587 29.3602C282.334 27.9202 281.707 25.7202 281.707 22.7602V10.8802H288.947V22.9602C288.947 24.9602 289.814 25.9602 291.547 25.9602C292.56 25.9602 293.374 25.6002 293.987 24.8802C294.627 24.1602 294.947 23.2002 294.947 22.0002V10.8802H302.267ZM325.353 21.7602H312.593C312.726 23.3335 313.179 24.4669 313.953 25.1602C314.726 25.8535 315.859 26.2002 317.353 26.2002C318.366 26.2002 319.379 26.0402 320.393 25.7202C321.406 25.3735 322.326 24.9069 323.153 24.3202L324.993 29.1202C323.979 29.8669 322.753 30.4535 321.313 30.8802C319.873 31.3069 318.433 31.5202 316.993 31.5202C314.673 31.5202 312.659 31.0935 310.953 30.2402C309.246 29.3869 307.939 28.1735 307.033 26.6002C306.126 25.0002 305.673 23.1202 305.673 20.9602C305.673 18.9069 306.099 17.0802 306.953 15.4802C307.833 13.8535 309.033 12.5869 310.553 11.6802C312.099 10.7735 313.859 10.3202 315.833 10.3202C317.753 10.3202 319.433 10.7469 320.873 11.6002C322.313 12.4535 323.419 13.6802 324.193 15.2802C324.966 16.8535 325.353 18.6935 325.353 20.8002V21.7602ZM316.033 15.2802C314.246 15.2802 313.126 16.3202 312.673 18.4002H319.153C318.886 16.3202 317.846 15.2802 316.033 15.2802Z" fill="white"/>
</svg>
