<svg width="550" height="236" viewBox="0 0 550 236" fill="none" xmlns="http://www.w3.org/2000/svg">
<g clip-path="url(#clip0)">
<path d="M267.237 116.186H246.23L249.342 95.3535H313.09L309.978 116.186H289.072L280.649 172.314H258.814L267.237 116.186Z" fill="#7427F1"/>
<path d="M306.138 172.315L317.572 95.3711H339.204L334.942 123.909H359.061L363.323 95.3711H385.159L373.725 172.315H351.89L355.949 144.725H331.83L327.771 172.315H306.138Z" fill="#7427F1"/>
<path d="M435.528 146.909C439.689 143.37 442.175 138.898 442.919 133.377C443.647 128.279 442.615 124.011 439.807 120.573C437 117.135 433.16 115.475 428.154 115.475C422.961 115.475 418.276 117.253 414.217 120.895C410.157 124.434 407.671 128.906 406.944 134.427C406.217 139.525 407.248 143.793 410.056 147.13C412.864 150.466 416.703 152.126 421.591 152.126C426.682 152.109 431.367 150.331 435.528 146.909ZM391.857 161.797C385.413 153.989 383.011 144.301 384.685 132.953C386.343 121.606 391.552 112.24 400.178 104.94C408.906 97.6574 419.003 93.999 430.437 93.999C442.293 93.999 451.444 97.9622 457.989 105.77C464.535 113.578 466.937 123.164 465.161 134.41C463.503 145.656 458.395 155.022 449.769 162.423C441.143 169.825 431.046 173.568 419.409 173.568C407.451 173.551 398.301 169.605 391.857 161.797Z" fill="#7427F1"/>
<path d="M524.46 95.3535H545.67L534.236 172.297H517.289L490.768 134.308L485.153 172.314H463.943L475.377 95.3704H491.597L518.625 133.901L524.46 95.3535Z" fill="#7427F1"/>
<path d="M265.545 113.934H244.538L247.667 93.1016H311.415L308.286 113.934H287.381L278.958 170.045H257.122L265.545 113.934Z" fill="#4D64EF"/>
<path d="M304.447 170.045L315.88 93.1016H337.513L333.251 121.623H357.37L361.632 93.1016H383.468L372.034 170.045H350.198L354.241 142.455H330.122L326.063 170.045H304.447Z" fill="#4D64EF"/>
<path d="M433.837 144.64C438.014 141.134 440.467 136.612 441.228 131.107C441.921 126.009 440.924 121.741 438.116 118.303C435.308 114.865 431.469 113.205 426.462 113.205C421.27 113.205 416.602 115.001 412.525 118.625C408.5 122.199 405.997 126.653 405.252 132.157C404.559 137.255 405.557 141.523 408.365 144.86C411.172 148.197 415.012 149.856 419.9 149.856C424.991 149.856 429.693 148.112 433.837 144.64ZM390.165 159.527C383.721 151.719 381.32 142.032 382.994 130.684C384.652 119.336 389.844 109.936 398.487 102.671C407.198 95.354 417.312 91.7295 428.746 91.7295C440.602 91.7295 449.752 95.6927 456.298 103.501C462.844 111.308 465.195 120.878 463.469 132.141C461.761 143.387 456.704 152.753 448.078 160.154C439.452 167.555 429.355 171.298 417.718 171.298C405.76 171.298 396.61 167.335 390.165 159.527Z" fill="#4D64EF"/>
<path d="M522.769 93.1016H543.979L532.545 170.045H515.597L489.077 132.039L483.461 170.045H462.252L473.685 93.1016H489.906L516.951 131.633L522.769 93.1016Z" fill="#4D64EF"/>
<path d="M263.854 111.664H242.847L245.976 90.8486H309.724L306.595 111.664H285.689L277.266 167.792H255.431L263.854 111.664Z" fill="#27A2EE"/>
<path d="M302.755 167.792L314.189 90.8486H335.822L331.559 119.37H355.678L359.941 90.8486H381.776L370.343 167.792H348.507L352.549 140.202H328.43L324.371 167.792H302.755Z" fill="#27A2EE"/>
<path d="M432.145 142.387C436.323 138.881 438.775 134.359 439.537 128.854C440.23 123.756 439.232 119.488 436.424 116.05C433.617 112.612 429.777 110.952 424.771 110.952C419.578 110.952 414.91 112.748 410.834 116.372C406.809 119.946 404.305 124.4 403.561 129.904C402.868 135.002 403.866 139.27 406.673 142.607C409.481 145.944 413.32 147.603 418.208 147.603C423.299 147.586 428.001 145.859 432.145 142.387ZM388.474 157.274C382.03 149.466 379.628 139.779 381.303 128.431C382.96 117.083 388.153 107.684 396.796 100.418C405.506 93.101 415.621 89.4766 427.054 89.4766C438.911 89.4766 448.061 93.4398 454.607 101.248C461.152 109.055 463.503 118.625 461.778 129.888C460.07 141.134 455.013 150.5 446.387 157.901C437.761 165.302 427.663 169.045 416.027 169.045C404.069 169.045 394.918 165.082 388.474 157.274Z" fill="#27A2EE"/>
<path d="M521.078 90.8486H542.287L530.854 167.792H513.906L487.385 129.786L481.77 167.792H460.56L471.994 90.8486H488.214L515.259 129.363L521.078 90.8486Z" fill="#27A2EE"/>
<path d="M262.501 110.427H241.494L244.606 89.5947H308.354L305.242 110.427H284.336L275.913 166.555H254.078L262.501 110.427Z" fill="#00DFEC"/>
<path d="M301.402 166.556L312.836 89.6123H334.469L330.206 118.151H354.325L358.588 89.6123H380.423L368.989 166.556H347.154L351.213 138.966H327.094L323.035 166.556H301.402Z" fill="#00DFEC"/>
<path d="M430.792 141.151C434.953 137.611 437.439 133.139 438.183 127.618C438.911 122.52 437.879 118.252 435.071 114.814C432.264 111.376 428.424 109.716 423.418 109.716C418.225 109.716 413.54 111.494 409.481 115.136C405.422 118.676 402.935 123.147 402.208 128.668C401.481 133.766 402.512 138.034 405.32 141.371C408.128 144.707 411.967 146.367 416.855 146.367C421.946 146.35 426.631 144.572 430.792 141.151ZM387.121 156.038C380.677 148.23 378.275 138.542 379.95 127.195C381.607 115.847 386.817 106.481 395.443 99.1814C404.17 91.8986 414.267 88.2402 425.701 88.2402C437.558 88.2402 446.708 92.2034 453.254 100.011C459.799 107.819 462.201 117.405 460.425 128.651C458.767 139.897 453.66 149.263 445.034 156.665C436.408 164.066 426.31 167.809 414.673 167.809C402.715 167.792 393.565 163.846 387.121 156.038Z" fill="#00DFEC"/>
<path d="M519.724 89.5947H540.934L529.501 166.538H512.553L486.032 128.549L480.417 166.555H459.207L470.641 89.6117H486.861L513.889 128.143L519.724 89.5947Z" fill="#00DFEC"/>
<path d="M456.112 194.772C458.937 194.772 461.068 195.568 462.488 197.177C463.96 198.753 464.687 200.666 464.687 202.936C464.687 205.205 463.926 207.085 462.421 208.661C460.915 210.236 458.683 210.998 455.757 210.998H451.224V220.567H447.215V194.772H456.112ZM455.858 207.289C458.953 207.289 460.594 205.256 460.594 202.851C460.594 200.446 459.021 198.515 456.264 198.515H451.207V207.272H455.858V207.289Z" fill="#7427F1"/>
<path d="M439.976 207.288C439.351 206.932 438.302 206.407 436.797 205.746C435.291 205.052 434.361 204.561 433.904 204.324C432.484 203.528 431.739 202.478 431.739 201.258C431.739 199.344 433.346 198.125 435.579 198.125C437.71 198.125 439.486 199.006 440.907 200.784L443.376 198.023C441.397 195.55 438.775 194.331 435.528 194.331C433.126 194.331 431.164 195.025 429.676 196.397C429.033 196.973 428.543 197.634 428.187 198.328C430.133 200.97 431.114 204.053 431.13 207.592C431.198 207.643 431.266 207.677 431.35 207.728C432.01 208.118 433.025 208.609 434.31 209.201C435.63 209.76 436.509 210.15 436.932 210.353C438.64 211.268 439.469 212.386 439.469 213.673C439.469 215.62 437.727 217.196 435.071 217.196C433.025 217.196 431.063 216.332 429.642 214.621C429.084 215.79 428.374 216.874 427.494 217.907C429.439 219.922 432.162 221.006 435.071 221.006C437.642 221.006 439.773 220.312 441.414 218.906C443.055 217.484 443.883 215.654 443.883 213.453C443.917 210.794 442.598 208.727 439.976 207.288Z" fill="#7427F1"/>
<path d="M405.439 217.145C402.868 214.554 401.565 211.387 401.565 207.644C401.565 203.901 402.851 200.733 405.439 198.193C408.009 195.619 411.223 194.314 415.096 194.314C418.969 194.314 422.166 195.602 424.754 198.193C427.325 200.733 428.627 203.918 428.627 207.694C428.627 211.421 427.342 214.605 424.754 217.145C422.217 219.686 419.003 220.99 415.13 220.99C411.257 220.973 408.009 219.686 405.439 217.145ZM419.375 212.047C420.526 210.862 421.118 209.388 421.084 207.644C421.05 205.831 420.458 204.358 419.308 203.206C418.158 202.055 416.72 201.496 415.096 201.496C413.422 201.496 412.001 202.088 410.851 203.24C409.701 204.392 409.109 205.865 409.109 207.644C409.109 209.422 409.701 210.896 410.851 212.047C412.001 213.199 413.422 213.792 415.096 213.792C416.805 213.792 418.225 213.199 419.375 212.047Z" fill="#7427F1"/>
<path d="M481.432 220.567L478.996 214.216H469.508L467.072 220.567H462.759L473.009 194.772H475.63L485.779 220.567H481.432ZM474.294 201.158L470.81 210.507H477.778L474.294 201.158Z" fill="#7427F1"/>
<path d="M502.219 220.567L495.944 210.439H492.527V220.567H488.519V194.772H497.618C500.308 194.772 502.354 195.535 503.792 197.076C505.212 198.617 505.957 200.463 505.957 202.631C505.957 206.018 503.927 209.05 500.206 210.066L507.073 220.567H502.219ZM492.527 198.566V206.696H496.992C500.24 206.696 501.796 204.918 501.796 202.58C501.796 200.311 500.257 198.566 497.618 198.566H492.527Z" fill="#7427F1"/>
<path d="M526.016 220.567L517.576 209.609L514.16 213.691V220.567H510.151V194.772H514.16V208.203L525.086 194.772H529.89L520.181 206.781L530.955 220.567H526.016Z" fill="#7427F1"/>
<path d="M356.05 220.567V194.772H375.332V201.479H363.374V204.342H374.419V211.015H363.374V213.877H375.264V220.584H356.05V220.567Z" fill="#7427F1"/>
<path d="M396.204 227.901L388 212.505H385.768V220.567H378.512V194.772H389.743C392.956 194.772 395.392 195.568 397.032 197.211C398.673 198.854 399.502 200.954 399.502 203.529C399.502 206.781 398.115 209.711 395.07 211.235L404.458 227.884H396.204V227.901ZM385.768 201.361V206.205H389.506C391.214 206.205 392.043 205.121 392.043 203.766C392.043 202.377 391.163 201.361 389.675 201.361H385.768Z" fill="#7427F1"/>
<path d="M330.054 212.471V227.917H337.31V212.03L330.054 212.471Z" fill="#7427F1"/>
<path d="M345.395 187.404V204.358H337.31V194.789H330.054V204.341L322.714 204.409L330.054 211.353H348.219L345.395 211.522V220.583H352.718V187.404H345.395Z" fill="#7427F1"/>
<path d="M16.1695 95.3535H38.0051L26.5714 172.297H4.73584L16.1695 95.3535Z" fill="#7427F1"/>
<path d="M57.9971 151.482H67.4519C73.3717 151.482 78.0568 149.703 81.4903 146.164C84.9237 142.522 86.9026 138.153 87.6299 133.038C88.2557 128.346 87.5285 124.298 85.4481 121.063C83.4692 117.829 79.9342 116.169 74.9447 116.169H63.2911L57.9971 151.482ZM33.3538 172.314L44.8044 95.3535H74.5387C87.3255 95.3535 96.7972 98.8933 102.92 105.973C109.161 112.951 111.444 122.537 109.888 134.613C108.332 146.384 103.749 155.648 96.1544 162.304C88.5602 168.96 78.6826 172.297 66.5216 172.297H33.3538V172.314Z" fill="#7427F1"/>
<path d="M109.871 172.314L121.305 95.3535H178.812L175.801 115.339H140.13L138.878 123.875H171.843L168.934 143.759H135.969L134.616 152.295H170.067L167.158 172.28H109.871V172.314Z" fill="#7427F1"/>
<path d="M216.106 119.827L206.229 141.066H219.337L216.106 119.827ZM223.176 172.314L221.519 159.713H198.33L192.512 172.314H170.253L209.037 95.3535H230.145L245.215 172.297H223.176V172.314Z" fill="#7427F1"/>
<path d="M14.309 92.9316H36.1446L24.7109 169.875H2.87533L14.309 92.9316Z" fill="#A22ABF"/>
<path d="M56.1366 149.06H65.5913C71.5111 149.06 76.2301 147.315 79.6297 143.742C83.0801 140.117 85.059 135.731 85.7694 130.616C86.4121 125.941 85.6341 121.893 83.5875 118.642C81.5748 115.441 78.0737 113.747 73.0841 113.747H61.4306L56.1366 149.06ZM31.4933 169.875L42.927 92.9316H72.6613C85.448 92.9316 94.8521 96.5222 101.042 103.551C107.233 110.58 109.567 120.115 108.011 132.191C106.455 143.962 101.871 153.226 94.277 159.882C86.6827 166.539 76.8051 169.875 64.6442 169.875H31.4933Z" fill="#A22ABF"/>
<path d="M108.011 169.875L119.445 92.9316H176.951L173.941 112.917H138.27L137.018 121.453H169.983L167.074 141.354H134.109L132.756 149.89H168.224L165.315 169.875H108.011Z" fill="#A22ABF"/>
<path d="M214.246 117.405L204.368 138.644H217.476L214.246 117.405ZM221.316 169.875L219.658 157.274H196.47L190.651 169.875H168.393L207.176 92.9316H228.284L243.354 169.875H221.316Z" fill="#A22ABF"/>
<path d="M15.493 93.4565C19.9413 101.112 10.385 108.75 17.8609 114.695C22.14 118.099 32.339 110.004 38.5971 110.969C43.7558 111.782 51.1471 123.113 57.439 120.267C61.9887 118.218 59.9591 104.686 65.0163 99.9094C68.7711 96.3696 81.9638 100.282 85.9724 94.9131C97.3722 79.5854 104.391 64.0713 118.261 63.1229C131.724 62.1913 145.864 77.9933 162.304 80.8725C176.038 83.2776 191.598 72.9123 207.836 71.8283C221.384 70.9307 238.805 79.8225 254.331 72.9292C266.425 67.5603 272.7 49.2686 286.095 38.5307C304.599 23.7111 332.033 24.541 355.205 18.6301C378.326 12.7192 401.65 -1.30441 424.923 0.711057C449.82 2.86202 470.15 21.0859 489.889 31.1633C513.077 43.002 539.53 52.1309 547.361 73.1663C554.668 92.7621 541.949 115.254 528.435 141.269" stroke="#00DFEC" stroke-miterlimit="10"/>
<path d="M11.569 106.193C16.7277 115.695 14.106 117.693 23.0365 124.654C28.3643 128.821 36.0939 129.092 43.908 129.024C49.9462 128.973 57.625 129.989 64.8641 124.79C69.7352 121.284 72.5429 113.916 77.8707 107.209C78.9363 105.871 82.6065 106.786 83.689 105.567C84.8222 104.296 83.5368 100.74 84.6869 99.5879C85.9047 98.3854 89.4228 99.7234 90.6575 98.6564C91.9429 97.5385 91.1141 93.8633 92.4165 92.864C105.186 83.1762 118.548 86.4958 132.857 90.0186C144.832 92.9826 158.701 94.8964 173.805 98.3684C186.118 101.197 199.599 106.21 215.142 104.584C227.32 103.297 239.786 96.7425 254.484 90.3574C256.75 89.375 260.437 91.3736 262.636 90.2388C264.818 89.104 265.325 84.9376 267.456 83.6504C269.554 82.3802 273.461 83.8875 275.524 82.4648C277.537 81.076 277.52 76.8757 279.499 75.3345C284.505 71.439 291.508 70.4736 296.666 66.9847C301.825 63.4957 305.394 57.3307 311.009 54.3499C316.405 51.4876 323.458 51.9449 329.513 49.6584C335.128 47.5244 340.067 42.4434 346.46 40.8683C368.262 35.5501 391.062 37.1591 412.661 38.7512C435.799 40.4448 458.683 42.7144 477.559 51.6231C499.09 61.7682 514.278 78.688 524.46 97.1321C534.406 115.136 540.579 136.425 533.898 161.254" stroke="#7427F1" stroke-miterlimit="10"/>
<path d="M10.0806 108.937C10.0806 108.937 37.5653 163.321 77.431 116.863C81.9638 111.579 86.6828 107.04 91.5877 102.873C129.762 70.5074 154.71 144.097 245.249 114.865C255.042 111.697 263.38 107.26 271.11 101.417C289.833 87.2747 304.599 72.7938 334.689 64.3763C426.513 38.6833 528.993 70.9138 529.822 159.222" stroke="#00DFEC" stroke-miterlimit="10"/>
<path d="M14.0553 108.988C18.5205 118.421 11.1123 122.842 18.6896 130.988C23.2394 135.866 33.5399 133.241 40.2884 135.409C46.3097 137.323 53.6164 145.52 61.0754 142.082C66.251 139.694 66.7077 128.668 72.4752 122.469C73.6084 121.267 81.1012 126.161 82.2513 124.976C83.4015 123.79 78.3443 116.406 79.5282 115.254C80.6953 114.102 88.002 119.285 89.2029 118.133C90.3868 116.999 85.5326 109.479 86.7504 108.344C100.231 95.6584 110.954 105.38 122.912 113.086C132.045 118.98 146.642 120.115 160.325 127.008C170.642 132.208 180.621 144.69 195.844 145.757C207.142 146.553 219.388 136.967 234.356 133.546C236.809 132.987 241.443 140.846 243.676 140.134C246.061 139.372 245.215 130.294 247.363 129.346C249.629 128.363 255.718 135.138 257.782 133.952C259.896 132.733 257.139 124.044 259.084 122.622C264.192 118.896 274.188 121.758 278.704 117.744C283.135 113.798 282.07 102.975 287.229 99.1304C291.761 95.76 301.402 99.9773 307.423 96.9964C312.379 94.5406 314.696 84.1076 321.191 82.0582C341.285 75.7578 363.374 80.7371 383.501 79.9581C404.846 79.1282 426.75 72.8785 445.828 78.6201C466.125 84.7173 480.214 102.077 495.166 116.033C509.627 129.515 528.097 142.2 534.913 163.422" stroke="#7427F1" stroke-miterlimit="10"/>
<path d="M10.0806 112.816C10.0806 112.816 35.9247 171.18 73.9298 134.088C78.395 129.719 83.0632 125.214 87.8836 120.217C124.366 82.3806 121.982 175.99 225.409 160.814C236.995 159.121 245.35 155.784 252.234 150.957C269.892 138.594 275.474 120.268 310.333 108.158C390.487 80.3143 480.654 91.0691 533.357 169.334" stroke="#7427F1" stroke-miterlimit="10"/>
<path d="M10.9093 96.6748C18.808 115.678 6.57943 129.871 22.0047 140.168C32.1022 146.892 43.908 134.088 58.5383 121.25C60.8724 119.201 75.7227 130.362 78.1413 127.94C80.3401 125.755 69.2786 110.851 71.545 108.276C95.3426 81.2793 97.1524 131.395 127.512 156.665C142.718 169.316 170.507 162.88 207.176 160.086C212.639 159.679 220.352 176.853 224.428 175.769C229.671 174.364 226.475 155.97 230.094 153.548C240.327 146.706 256.361 150.855 266.256 140.964C272.92 134.308 272.328 112.629 287.279 106.922C327.06 91.7462 370.833 100.824 413.219 107.328C450.226 113.002 495.2 114.391 531.869 148.535" stroke="#00DFEC" stroke-miterlimit="10"/>
<path d="M10.0806 108.208C10.0806 108.208 34.4363 170.704 70.4118 142.827C74.8432 139.388 79.4437 134.934 84.1626 129.091C119.14 85.9362 89.2537 199.87 205.552 198.294C218.931 198.108 227.32 195.856 233.342 192.045C249.951 181.493 246.585 159.899 285.96 143.487C354.917 114.729 422.132 94.9804 526.727 163.202" stroke="#00DFEC" stroke-miterlimit="10"/>
<path d="M17.2012 114.509C20.7531 124.18 6.07202 129.938 11.7888 139.812C15.0532 145.418 31.747 141.912 36.5167 146.909C41.5231 152.142 39.7641 169.553 46.1575 171.027C52.1619 172.415 56.1028 157.037 63.0881 152.396C67.7394 149.314 83.3338 155.987 88.3403 149.28C101.296 131.869 104.408 132.36 108.315 148.213C110.497 157.037 98.5223 174.058 104.324 185.541C108.975 194.738 127.597 194.111 137.255 201.851C145.001 208.067 147.521 227.206 159.868 230.847C169.306 233.642 182.854 219.872 195.624 220.397C204.385 220.753 212.487 235.945 217.527 234.726C226.153 232.642 221.705 216.603 224.986 211.217C228.098 206.103 243.76 208.457 248.209 201.818C251.422 197.041 244.386 181.223 250.982 176.311C255.634 172.839 269.435 183.018 276.725 179.698C292.827 172.365 302.755 149.89 319.889 143.352C335.957 137.221 356.829 147.518 375.704 145.063C392.009 142.929 409.718 126.906 429.388 129.515C445.406 131.632 459.156 151.058 478.1 157.426C493.542 162.609 516.037 154.666 533.814 163.27" stroke="#7427F1" stroke-miterlimit="10"/>
<path d="M12.7868 90.8486H34.6224L23.1887 167.792H1.3531L12.7868 90.8486Z" fill="#D12D8E"/>
<path d="M54.6144 146.96H64.0691C69.9889 146.96 74.7078 145.215 78.1075 141.642C81.5579 138.017 83.5368 133.631 84.2472 128.516C84.8899 123.841 84.1119 119.793 82.0653 116.542C80.0526 113.341 76.5514 111.647 71.5619 111.647H59.9084L54.6144 146.96ZM29.9711 167.792L41.4048 90.8486H71.1391C83.9258 90.8486 93.3298 94.4392 99.5203 101.468C105.711 108.497 108.045 118.032 106.489 130.108C104.933 141.879 100.349 151.143 92.7548 157.799C85.1605 164.456 75.2829 167.792 63.122 167.792H29.9711Z" fill="#D12D8E"/>
<path d="M106.489 167.792L117.922 90.8486H175.429L172.418 110.834H136.747L135.496 119.37H168.461L165.551 139.254H132.587L131.233 147.807H166.702L163.792 167.792H106.489Z" fill="#D12D8E"/>
<path d="M212.724 115.305L202.846 136.544H215.954L212.724 115.305ZM219.794 167.792L218.136 155.191H194.947L189.129 167.792H166.871L205.654 90.8486H226.762L241.832 167.792H219.794Z" fill="#D12D8E"/>
<path d="M11.4337 89.5947H33.2693L21.8356 166.538H0L11.4337 89.5947Z" fill="#FF305C"/>
<path d="M53.2613 145.723H62.716C68.6358 145.723 73.3209 143.945 76.7544 140.405C80.1879 136.763 82.1668 132.394 82.8941 127.279C83.5199 122.587 82.7926 118.54 80.7122 115.305C78.7333 112.07 75.1983 110.41 70.2088 110.41H58.5553L53.2613 145.723ZM28.618 166.555L40.0686 89.5947H69.8029C82.5896 89.5947 92.0613 93.1345 98.1841 100.214C104.425 107.192 106.709 116.778 105.153 128.854C103.596 140.625 99.0128 149.889 91.4186 156.546C83.8243 163.202 73.9467 166.538 61.7858 166.538H28.618V166.555Z" fill="#FF305C"/>
<path d="M105.136 166.555L116.569 89.5947H174.076L171.065 109.58H135.394L134.143 118.116H167.107L164.198 138H131.233L129.88 146.536H165.332L162.422 166.521H105.136V166.555Z" fill="#FF305C"/>
<path d="M211.371 114.068L201.493 135.307H214.601L211.371 114.068ZM218.441 166.555L216.783 153.954H193.594L187.776 166.555H165.518L204.301 89.5947H225.409L240.479 166.538H218.441V166.555Z" fill="#FF305C"/>
</g>
<defs>
<clipPath id="clip0">
<rect width="550" height="235.319" fill="white"/>
</clipPath>
</defs>
</svg>
