<svg width="550" height="377" viewBox="0 0 550 377" fill="none" xmlns="http://www.w3.org/2000/svg">
<g clip-path="url(#clip0)">
<path d="M302.142 375.996V327.393H306.14V371.999H333.282V375.786H302.142V375.996Z" fill="#262626"/>
<path d="M340.857 375.996V327.393H370.103V331.18H344.855V349.485H368.42V353.272H344.855V372.209H370.103V375.996H340.857Z" fill="#262626"/>
<path d="M411.132 375.996L405.451 361.268H385.042L379.361 375.996H374.943L394.3 327.393H396.404L415.551 375.996H411.132ZM395.142 334.546L386.305 357.481H404.189L395.142 334.546Z" fill="#262626"/>
<path d="M425.65 369.474C421.021 364.845 418.707 358.743 418.707 351.589C418.707 344.225 421.232 338.334 426.071 333.705C430.91 328.865 436.802 326.551 443.956 326.551C447.953 326.551 451.741 327.392 455.528 329.076C459.105 330.759 462.051 332.863 464.155 335.598L461.209 338.123C457.211 333.284 450.689 330.338 443.956 330.338C438.064 330.338 433.015 332.442 429.017 336.44C425.019 340.438 422.915 345.487 422.915 351.589C422.915 357.691 424.809 362.741 428.806 366.738C432.804 370.736 437.643 372.63 443.745 372.63C450.478 372.63 456.58 369.894 461.84 364.634V353.483H442.483V349.695H465.627V366.317C459.736 373.261 452.372 376.627 443.535 376.627C436.171 376.627 430.279 374.313 425.65 369.474Z" fill="#262626"/>
<path d="M475.096 327.393H479.093V359.585C479.093 368.001 483.722 372.84 491.507 372.84C499.292 372.84 503.921 368.001 503.921 359.585V327.393H507.919V360.216C507.919 365.476 506.446 369.474 503.5 372.419C500.555 375.365 496.557 376.838 491.718 376.838C486.878 376.838 482.881 375.365 479.725 372.419C476.779 369.474 475.306 365.476 475.306 360.216V327.393H475.096Z" fill="#262626"/>
<path d="M520.543 375.996V327.393H549.79V331.18H524.541V349.485H548.106V353.272H524.541V372.209H549.79V375.996H520.543Z" fill="#262626"/>
<path d="M90.6848 368.631L97.2074 358.321C101.836 362.108 106.676 364.002 111.515 364.002C114.671 364.002 116.144 363.16 116.144 361.477C116.144 360.425 114.881 359.373 112.357 358.531C111.725 358.321 110.673 357.9 109.411 357.69C106.676 356.848 103.94 356.007 101.836 354.955C96.3657 352.219 93.6305 348.011 93.6305 342.12C93.6305 337.701 95.3137 333.914 98.8906 330.968C102.467 328.023 107.096 326.55 112.567 326.55C119.3 326.55 125.402 328.443 130.662 332.441L124.56 343.172C123.087 342.12 121.194 341.278 118.879 340.437C116.565 339.805 114.461 339.385 112.777 339.385C109.621 339.385 108.148 340.437 108.148 341.699C108.148 343.382 109.621 344.013 111.936 344.645C116.985 346.118 119.931 347.17 121.404 347.801C127.927 350.326 131.293 354.744 131.293 360.846C131.293 365.475 129.399 369.262 125.822 372.418C122.246 375.364 117.406 376.837 111.094 376.837C103.309 376.626 96.3657 374.101 90.6848 368.631Z" fill="#262626"/>
<path d="M146.863 340.226H133.607V326.971H174.005V340.226H160.75V375.785H146.863V340.226Z" fill="#262626"/>
<path d="M179.476 326.971H193.363V375.785H179.476V326.971Z" fill="#262626"/>
<path d="M207.039 369.683C202.2 365.054 199.885 358.952 199.885 351.588C199.885 344.224 202.41 338.122 207.249 333.283C212.089 328.443 217.98 326.129 225.134 326.129C233.761 326.129 241.335 329.706 245.964 335.597L237.337 344.855C233.761 341.068 229.973 339.384 225.976 339.384C222.609 339.384 219.874 340.647 217.559 342.961C215.245 345.276 214.193 348.011 214.193 351.588C214.193 354.954 215.245 357.9 217.559 360.215C219.874 362.529 222.609 363.581 225.976 363.581C230.394 363.581 234.181 361.687 237.548 357.69L246.595 366.527C244.491 369.472 241.335 371.787 237.548 373.891C233.761 375.785 229.552 376.626 224.923 376.626C217.77 376.626 211.878 374.312 207.039 369.683Z" fill="#262626"/>
<path d="M251.855 375.785V326.971H288.256V339.595H265.532V345.066H286.362V357.69H265.532V363.16H288.256V375.785H251.855Z" fill="#262626"/>
<path d="M31.14 356.217H37.2418C37.2418 355.796 37.2418 355.165 37.2418 354.744V352.009L31.14 346.328H37.2418V341.699L31.14 336.018H37.2418V331.389L33.2441 327.602H23.5654V354.744C23.5654 360.425 20.4093 364.002 14.9388 364.002C11.9931 364.002 8.83703 362.739 5.68095 360.425L0 370.945C4.41852 374.732 9.88906 376.626 16.4116 376.626C22.0926 376.626 26.9319 375.153 30.7192 371.787C33.4545 369.472 35.5585 365.895 36.6106 361.266L31.14 356.217Z" fill="#262626"/>
<path d="M36.1897 327.181H55.1262V335.387H45.0268L36.1897 327.181Z" fill="#262626"/>
<path d="M36.1897 337.491H55.1262V345.907H45.0268L36.1897 337.491Z" fill="#262626"/>
<path d="M36.1897 348.012H55.1262V356.428H45.0268L36.1897 348.012Z" fill="#262626"/>
<path d="M36.1897 358.11H55.1262V366.527H45.0268L36.1897 358.11Z" fill="#262626"/>
<path d="M72.5899 326.971V356.217C72.5899 361.056 69.6442 363.371 65.6465 363.371C61.6488 363.371 58.7031 361.056 58.7031 356.217V326.971H44.8164V335.387H54.9158L44.8164 337.491V345.907H54.9158L44.8164 348.011V356.427H54.9158L45.0268 358.532C45.2372 361.688 45.8684 364.423 46.9204 366.737H54.9158L47.7621 368.21C48.8141 369.893 50.0765 371.366 51.5494 372.629C55.7575 375.574 60.3864 377.047 65.6465 377.047C75.746 377.047 86.4767 371.787 86.4767 356.638V327.392H72.5899V326.971Z" fill="#262626"/>
<path d="M274.639 249.332C338.202 249.332 389.731 197.804 389.731 134.24C389.731 70.6768 338.202 19.1484 274.639 19.1484C211.075 19.1484 159.547 70.6768 159.547 134.24C159.547 197.804 211.075 249.332 274.639 249.332Z" fill="#262626"/>
<path d="M274.639 266.795C201.628 266.795 142.083 207.25 142.083 134.24C142.083 61.2289 201.628 1.89453 274.639 1.89453C347.649 1.89453 406.984 61.2289 406.984 134.24C406.984 207.25 347.649 266.795 274.639 266.795ZM274.639 10.3108C206.257 10.3108 150.71 65.8578 150.71 134.24C150.71 202.621 206.257 258.168 274.639 258.168C343.021 258.168 398.568 202.621 398.568 134.24C398.568 65.8578 343.021 10.3108 274.639 10.3108Z" fill="white"/>
<path opacity="0.3" d="M312.722 122.457H313.774L336.708 100.785H312.933V100.574L287.684 95.5248H312.933H313.985L336.708 73.6426H312.933H287.684H277.374V143.497C277.374 158.015 269.168 167.483 254.861 167.483C247.076 167.483 239.08 164.327 231.085 158.015L216.567 186.841C227.718 196.519 242.026 201.569 258.858 201.569C273.376 201.569 285.79 197.571 296.1 188.945C299.467 186.21 302.202 182.843 304.727 178.845L287.684 175.479H306.62H313.774L336.708 153.807H309.777L292.523 150.23L312.512 149.178H312.722H314.405L336.288 126.454L312.933 127.506V127.296L287.684 122.246H312.722V122.457ZM288.105 149.389H287.684H288.105Z" fill="black"/>
<path d="M274.639 266.795C201.628 266.795 142.083 207.25 142.083 134.24C142.083 61.2289 201.628 1.89453 274.639 1.89453C347.649 1.89453 406.984 61.2289 406.984 134.24C406.984 207.25 347.649 266.795 274.639 266.795ZM274.639 10.3108C206.257 10.3108 150.71 65.8578 150.71 134.24C150.71 202.621 206.257 258.168 274.639 258.168C343.021 258.168 398.568 202.621 398.568 134.24C398.568 65.8578 343.021 10.3108 274.639 10.3108Z" fill="#262626"/>
<path d="M314.826 120.352H315.878L338.812 98.6804H315.037V98.47L289.788 93.4203H315.037H316.089L338.812 71.5381H315.037H289.788H279.478V141.393C279.478 155.911 271.272 165.379 256.965 165.379C249.18 165.379 241.184 162.223 233.189 155.911L218.671 184.736C229.822 194.415 244.13 199.465 260.962 199.465C275.48 199.465 287.894 195.467 298.204 186.84C301.571 184.105 304.306 180.739 306.831 176.741L289.788 173.374H308.725H315.878L338.812 151.703H311.881L294.627 148.126L314.616 147.074H314.826H316.509L338.392 124.35L315.037 125.402V125.192L289.788 120.142H314.826V120.352ZM290.209 147.284H289.788H290.209Z" fill="white"/>
</g>
<defs>
<clipPath id="clip0">
<rect width="550" height="376.836" fill="white"/>
</clipPath>
</defs>
</svg>
