<svg width="550" height="323" viewBox="0 0 550 323" fill="none" xmlns="http://www.w3.org/2000/svg">
<path d="M19.7454 310.337V279.821H16.6939H7.71867H0L7.71867 287.181H7.89817H16.6939L7.89817 288.976H7.71867V321.287H39.1319V310.337H19.7454Z" fill="#00DFE1"/>
<path d="M43.6194 321.107V279.821H74.4941V290.592H55.2872V295.259H73.0581V306.029H55.2872V310.696H74.3146V321.466H43.6194V321.107Z" fill="#00DFE1"/>
<path d="M105.728 321.107L103.753 314.286H91.188L89.0339 321.107H77.1867L91.906 279.821H103.215L117.575 321.107H105.728ZM101.24 304.413L97.8296 292.925L94.2396 304.413H101.24Z" fill="#00DFE1"/>
<path d="M143.424 321.107L136.961 308.183H133.371V321.107H121.704V279.821H139.654C144.86 279.821 148.809 281.078 151.322 283.77C154.014 286.463 155.271 289.694 155.271 293.823C155.271 299.028 153.117 303.695 148.091 306.208L156.527 321.107H143.424ZM133.192 290.412V298.131H139.116C141.808 298.131 143.244 296.336 143.244 294.182C143.244 292.028 141.808 290.233 139.475 290.233H133.192V290.412Z" fill="#00DFE1"/>
<path d="M188.12 279.821H199.608V321.107H190.454L173.221 300.644V321.107H161.733V279.821H170.529L188.3 300.464V279.821H188.12Z" fill="#00DFE1"/>
<path d="M207.148 321.107V279.821H238.022V290.592H218.995V295.259H236.766V306.029H218.995V310.696H238.022V321.466H207.148V321.107Z" fill="#00DFE1"/>
<path d="M266.563 321.107L260.101 308.183H256.511V321.107H244.843V279.821H262.794C267.999 279.821 271.948 281.078 274.461 283.77C277.154 286.463 278.411 289.694 278.411 293.823C278.411 299.028 276.257 303.695 271.23 306.208L279.667 321.107H266.563ZM256.332 290.412V298.131H262.255C264.948 298.131 266.384 296.336 266.384 294.182C266.384 292.028 264.948 290.233 262.614 290.233H256.332V290.412Z" fill="#00DFE1"/>
<path d="M292.232 315.005L297.797 306.388C301.746 309.619 305.695 311.235 310.003 311.235C312.696 311.235 313.952 310.517 313.952 309.081C313.952 308.183 312.875 307.286 310.901 306.568C310.362 306.388 309.644 306.209 308.388 305.85C306.054 305.132 303.721 304.414 301.926 303.516C297.258 301.183 294.925 297.593 294.925 292.567C294.925 288.797 296.361 285.566 299.413 283.053C302.464 280.54 306.234 279.283 311.08 279.283C316.824 279.283 321.851 280.899 326.338 284.309L321.133 293.285C319.876 292.387 318.26 291.669 316.286 291.13C314.311 290.592 312.516 290.233 311.08 290.233C308.388 290.233 307.131 291.13 307.131 292.207C307.131 293.464 308.388 294.182 310.362 294.721C314.491 295.977 317.183 296.875 318.26 297.413C323.825 299.567 326.697 303.337 326.697 308.542C326.697 312.491 325.082 315.723 322.03 318.236C318.978 320.749 314.85 322.005 309.644 322.005C302.823 321.826 297.079 319.672 292.232 315.005Z" fill="#00DFE1"/>
<path d="M289.001 293.463V273H279.847V283.95L289.001 293.463Z" fill="#00DFE1"/>
<g opacity="0.85">
<path opacity="0.85" d="M338.724 321.287V279.821H342.134V317.876H365.29V321.107H338.724V321.287Z" fill="#00DFE1"/>
<path opacity="0.85" d="M371.753 321.287V279.821H396.704V283.052H375.163V298.669H395.268V301.9H375.163V318.056H396.704V321.287H371.753Z" fill="#00DFE1"/>
<path opacity="0.85" d="M431.527 321.287L426.681 308.721H409.269L404.422 321.287H400.653L417.167 279.821H418.962L435.297 321.287H431.527ZM418.065 285.924L410.525 305.49H425.783L418.065 285.924Z" fill="#00DFE1"/>
<path opacity="0.85" d="M444.093 315.722C440.144 311.773 438.169 306.568 438.169 300.464C438.169 294.182 440.323 289.156 444.452 285.207C448.58 281.078 453.606 279.104 459.71 279.104C463.12 279.104 466.351 279.822 469.582 281.258C472.634 282.694 475.147 284.489 476.942 286.822L474.429 288.976C471.018 284.848 465.454 282.335 459.71 282.335C454.683 282.335 450.375 284.13 446.965 287.54C443.554 290.951 441.759 295.259 441.759 300.464C441.759 305.67 443.375 309.978 446.785 313.389C450.196 316.799 454.324 318.415 459.53 318.415C465.274 318.415 470.48 316.081 474.967 311.594V301.9H458.453V298.669H478.198V312.85C473.172 318.774 466.89 321.646 459.351 321.646C453.068 321.825 448.042 319.851 444.093 315.722Z" fill="#00DFE1"/>
<path opacity="0.85" d="M486.276 279.821H489.687V307.285C489.687 314.466 493.636 318.594 500.277 318.594C506.919 318.594 510.868 314.466 510.868 307.285V279.821H514.279V307.824C514.279 312.312 513.022 315.722 510.509 318.235C507.996 320.748 504.585 322.005 500.457 322.005C496.328 322.005 492.918 320.748 490.225 318.235C487.712 315.722 486.456 312.312 486.456 307.824V279.821H486.276Z" fill="#00DFE1"/>
<path opacity="0.85" d="M525.049 321.287V279.821H550V283.052H528.46V298.669H548.564V301.9H528.46V318.056H550V321.287H525.049Z" fill="#00DFE1"/>
</g>
<path d="M275 215.738C330.319 215.738 375.163 170.894 375.163 115.575C375.163 60.2567 330.319 15.4121 275 15.4121C219.681 15.4121 174.837 60.2567 174.837 115.575C174.837 170.894 219.681 215.738 275 215.738Z" fill="#00DFE1"/>
<path d="M275 230.637C211.456 230.637 159.758 178.94 159.758 115.396C159.758 51.8514 211.456 0.154297 275 0.154297C338.544 0.154297 390.242 51.8514 390.242 115.396C390.242 178.94 338.544 230.637 275 230.637ZM275 7.69346C215.584 7.69346 167.118 56.1595 167.118 115.575C167.118 174.991 215.584 223.457 275 223.457C334.416 223.457 382.882 174.991 382.882 115.575C382.882 56.1595 334.595 7.69346 275 7.69346Z" fill="#00DFE1"/>
<path opacity="0.4" d="M272.666 143.578V63.8779H265.127H241.612H221.149L241.612 83.2644H265.127L241.612 88.111V172.298H323.825V143.578H272.666Z" fill="white"/>
<path d="M275.359 141.065V61.3652H267.64H244.125H223.841L244.125 80.7517H267.64L244.125 85.4188V169.606H326.338V141.065H275.359Z" fill="white"/>
</svg>
