<svg width="180" height="106" viewBox="0 0 180 106" fill="none" xmlns="http://www.w3.org/2000/svg">
<g clip-path="url(#clip0)">
<path d="M6.46214 102.183V92.1992H5.46345H2.52611H0L2.52611 94.607H2.58486H5.46345L2.58486 95.1942H2.52611V105.765H12.8068V102.183H6.46214Z" fill="white"/>
<path d="M14.2755 105.706V92.1992H24.38V95.7228H18.0941V97.2496H23.91V100.773H18.0941V102.3H24.3212V105.824H14.2755V105.706Z" fill="white"/>
<path d="M34.6018 105.706L33.9556 103.475H29.8434L29.1384 105.706H25.2611L30.0783 92.1992H33.7794L38.4791 105.706H34.6018ZM33.1332 100.245L32.017 96.4862L30.842 100.245H33.1332Z" fill="white"/>
<path d="M46.9387 105.706L44.8238 101.478H43.6489V105.706H39.8303V92.1992H45.705C47.4087 92.1992 48.7011 92.6103 49.5235 93.4912C50.4047 94.3721 50.816 95.4291 50.816 96.7798C50.816 98.4829 50.111 100.01 48.4661 100.832L51.2272 105.706H46.9387ZM43.5901 95.664V98.1892H45.5288C46.41 98.1892 46.8799 97.602 46.8799 96.8973C46.8799 96.1926 46.41 95.6053 45.6462 95.6053H43.5901V95.664Z" fill="white"/>
<path d="M61.5666 92.1992H65.3263V105.706H62.3303L56.6906 99.0114V105.706H52.9308V92.1992H55.8094L61.6253 98.9527V92.1992H61.5666Z" fill="white"/>
<path d="M67.7937 105.706V92.1992H77.8981V95.7228H71.671V97.2496H77.4869V100.773H71.671V102.3H77.8981V105.824H67.7937V105.706Z" fill="white"/>
<path d="M87.2389 105.706L85.124 101.478H83.949V105.706H80.1305V92.1992H86.0052C87.7088 92.1992 89.0013 92.6103 89.8237 93.4912C90.7049 94.3721 91.1161 95.4291 91.1161 96.7798C91.1161 98.4829 90.4112 100.01 88.7663 100.832L91.5274 105.706H87.2389ZM83.8903 95.664V98.1892H85.8289C86.7101 98.1892 87.1801 97.602 87.1801 96.8973C87.1801 96.1926 86.7101 95.6053 85.9464 95.6053H83.8903V95.664Z" fill="white"/>
<path d="M95.6396 103.709L97.4608 100.89C98.7532 101.947 100.046 102.476 101.456 102.476C102.337 102.476 102.748 102.241 102.748 101.771C102.748 101.477 102.396 101.184 101.749 100.949C101.573 100.89 101.338 100.831 100.927 100.714C100.163 100.479 99.3994 100.244 98.812 99.9504C97.2846 99.187 96.5208 98.0125 96.5208 96.3682C96.5208 95.1349 96.9908 94.0779 97.9895 93.2557C98.9882 92.4335 100.222 92.0225 101.808 92.0225C103.688 92.0225 105.333 92.551 106.802 93.6668L105.098 96.6031C104.687 96.3094 104.158 96.0745 103.512 95.8984C102.865 95.7222 102.278 95.6047 101.808 95.6047C100.927 95.6047 100.516 95.8984 100.516 96.2507C100.516 96.6618 100.927 96.8967 101.573 97.0729C102.924 97.484 103.805 97.7776 104.158 97.9538C105.979 98.6585 106.919 99.8917 106.919 101.595C106.919 102.887 106.39 103.944 105.392 104.766C104.393 105.588 103.042 105.999 101.338 105.999C99.1057 105.94 97.2258 105.236 95.6396 103.709Z" fill="white"/>
<path d="M94.5823 96.6625V89.9678H91.5862V93.5501L94.5823 96.6625Z" fill="white"/>
<path opacity="0.85" d="M110.855 105.765V92.1992H111.971V104.649H119.55V105.706H110.855V105.765Z" fill="white"/>
<path opacity="0.85" d="M121.665 105.765V92.1992H129.83V93.2563H122.781V98.3654H129.36V99.4225H122.781V104.708H129.83V105.765H121.665Z" fill="white"/>
<path opacity="0.85" d="M141.227 105.765L139.641 101.654H133.943L132.356 105.765H131.123L136.527 92.1992H137.115L142.461 105.765H141.227ZM136.821 94.1959L134.354 100.597H139.347L136.821 94.1959Z" fill="white"/>
<path opacity="0.85" d="M145.34 103.944C144.047 102.652 143.401 100.949 143.401 98.9522C143.401 96.8968 144.106 95.2525 145.457 93.9605C146.808 92.6098 148.453 91.9639 150.45 91.9639C151.567 91.9639 152.624 92.1988 153.682 92.6686C154.68 93.1384 155.503 93.7256 156.09 94.4891L155.268 95.1938C154.152 93.8431 152.33 93.0209 150.45 93.0209C148.806 93.0209 147.396 93.6082 146.279 94.724C145.163 95.8398 144.576 97.2492 144.576 98.9522C144.576 100.655 145.105 102.065 146.221 103.18C147.337 104.296 148.688 104.825 150.392 104.825C152.272 104.825 153.975 104.061 155.444 102.593V99.422H150.039V98.365H156.501V103.004C154.856 104.942 152.8 105.882 150.333 105.882C148.277 105.941 146.632 105.295 145.34 103.944Z" fill="white"/>
<path opacity="0.85" d="M159.145 92.1992H160.261V101.184C160.261 103.533 161.554 104.884 163.727 104.884C165.901 104.884 167.193 103.533 167.193 101.184V92.1992H168.309V101.36C168.309 102.829 167.898 103.944 167.076 104.767C166.253 105.589 165.137 106 163.786 106C162.435 106 161.319 105.589 160.437 104.767C159.615 103.944 159.204 102.829 159.204 101.36V92.1992H159.145Z" fill="white"/>
<path opacity="0.85" d="M171.834 105.765V92.1992H180V93.2563H172.95V98.3654H179.53V99.4225H172.95V104.708H180V105.765H171.834Z" fill="white"/>
<path d="M89.9999 71.2342C108.104 71.2342 122.781 56.5631 122.781 38.4653C122.781 20.3675 108.104 5.69629 89.9999 5.69629C71.8956 5.69629 57.2192 20.3675 57.2192 38.4653C57.2192 56.5631 71.8956 71.2342 89.9999 71.2342Z" fill="white"/>
<path d="M90 76.108C69.2036 76.108 52.2845 59.195 52.2845 38.4061C52.2845 17.6171 69.2036 0.704102 90 0.704102C110.796 0.704102 127.715 17.6171 127.715 38.4061C127.715 59.195 110.796 76.108 90 76.108ZM90 3.17058C70.5548 3.17058 54.6932 19.0265 54.6932 38.4648C54.6932 57.903 70.5548 73.759 90 73.759C109.445 73.759 125.307 57.903 125.307 38.4648C125.307 19.0265 109.504 3.17058 90 3.17058Z" fill="white"/>
<path opacity="0.4" d="M89.2363 47.626V21.5518H86.7689H79.0731H72.376L79.0731 27.8941H86.7689L79.0731 29.4797V57.0221H105.979V47.626H89.2363Z" fill="#00DFEC"/>
<path d="M90.1174 46.8037V20.7295H87.5913H79.8955H73.2571L79.8955 27.0719H87.5913L79.8955 28.5987V56.1411H106.801V46.8037H90.1174Z" fill="#00DFEC"/>
</g>
<defs>
<clipPath id="clip0">
<rect width="180" height="106" fill="white"/>
</clipPath>
</defs>
</svg>
