<svg width="592" height="73" viewBox="0 0 592 73" fill="none" xmlns="http://www.w3.org/2000/svg">
<path d="M0 58.2766L6.9591 52.5189C10.7175 59.98 16.8285 63.6609 23.6017 63.6609C31.496 63.6609 36.3872 59.0349 36.3872 53.0848C36.3872 49.3105 33.9416 46.0963 29.1492 43.3604C27.9293 42.7012 25.4838 41.5695 22.0042 39.9595C18.5247 38.3553 15.9862 37.0311 14.2028 35.9927C7.23793 31.5593 3.75838 25.9883 3.75838 19.379C3.75838 14.0006 5.64047 9.5613 9.4918 5.97372C13.3489 2.2928 18.4259 0.496094 24.7228 0.496094C33.2794 0.496094 40.1397 3.897 45.1238 10.7863L38.8269 16.8298C35.0685 11.8247 30.3633 9.37463 24.8158 9.37463C18.5189 9.37463 13.8136 13.1489 13.8136 18.8132C13.8136 22.4941 15.7887 25.4225 19.7388 27.7792C20.9586 28.5317 23.5959 29.9493 27.8248 31.9326C32.0537 33.916 34.9698 35.4269 36.5672 36.3719C43.2417 40.432 46.6283 45.8105 46.6283 52.6123C46.6283 58.5624 44.4674 63.375 40.0468 67.0559C35.7249 70.7369 30.2703 72.6269 23.6888 72.6269C13.6336 72.6269 4.51354 67.6276 0 58.2766Z" fill="#FF305C"/>
<path d="M80.5698 1.7207C87.9007 1.7207 93.4482 3.89075 97.3054 8.14335C101.162 12.3959 103.039 17.3952 103.039 23.252C103.039 29.2022 101.064 34.3006 97.0207 38.5474C92.9777 42.7008 87.2443 44.7775 79.7217 44.7775H66.7446V71.4948H57.3457V1.7207H80.5698ZM79.9134 35.9982C88.9405 35.9982 93.6399 30.1472 93.6399 23.0654C93.6399 16.2694 89.1264 10.6051 81.1333 10.6051H66.7504V36.004H79.9134V35.9982Z" fill="#FF305C"/>
<path d="M150.8 71.4948L143.748 53.3644H117.329L110.277 71.4948H100.03L128.139 1.7207H133.216L161.047 71.4948H150.8ZM130.585 18.1536L120.524 44.4975H140.547L130.585 18.1536Z" fill="#FF305C"/>
<path d="M206.171 71.4948L188.117 43.1675H178.526V71.4948H169.127V1.7207H192.723C199.682 1.7207 205.038 3.79742 208.802 7.95085C212.659 12.0109 214.536 16.9227 214.536 22.4937C214.536 31.6522 208.802 40.0524 198.364 42.415L217.731 71.4948H206.171ZM178.532 10.6926V34.2948H190.94C200.344 34.2948 204.951 29.103 204.951 22.4003C204.951 15.6977 200.623 10.6926 192.822 10.6926H178.532Z" fill="#FF305C"/>
<path d="M271.861 71.4528L247.417 40.8621L237.919 52.0974V71.4528H228.52V1.67871H237.919V39.6313L269.793 1.67871H280.981L253.528 34.5328L283.519 71.447H271.861V71.4528Z" fill="#FF305C"/>
<path d="M288.96 61.3272L298.486 46.4986C305.062 51.9529 312.015 54.7237 319.16 54.7237C323.639 54.7237 325.922 53.4812 325.922 50.9903C325.922 49.3628 324.11 47.8344 320.589 46.5919C319.73 46.3061 318.301 45.8277 316.209 45.2502C312.114 44.0077 308.303 42.7651 305.254 41.2309C297.348 37.3109 293.438 31.0924 293.438 22.5755C293.438 16.0712 296.012 10.7102 301.158 6.40515C306.299 2.10588 312.875 0 320.88 0C330.598 0 339.265 2.87007 346.985 8.6102L338.219 24.0105C336.122 22.4822 333.363 21.2338 330.029 20.1838C326.695 19.1338 323.744 18.5563 321.17 18.5563C316.692 18.5563 314.595 20.0846 314.595 21.998C314.595 24.2964 316.692 25.2531 320.119 26.3031C327.264 28.5023 331.743 30.0365 333.648 30.8007C343.174 34.5341 347.938 40.9451 347.938 49.8411C347.938 56.538 345.272 62.0856 340.032 66.4899C334.792 70.795 327.74 72.9942 318.882 72.9942C306.967 73 297.057 69.0741 288.96 61.3272Z" fill="white"/>
<path d="M368.031 20.1894H348.786V1.0498H407.189V20.1836H388.037V71.7514H368.031V20.1894Z" fill="white"/>
<path d="M510.646 71.7573L499.499 49.6542H493.399V71.7573H473.585V1.0498H504.262C513.028 1.0498 519.696 3.24902 524.175 7.74662C528.648 12.2442 530.937 17.9844 530.937 25.0662C530.937 33.9622 527.126 42.0007 518.837 46.2125L533.219 71.7573H510.646V71.7573ZM493.399 19.1336V32.4339H503.594C508.264 32.4339 510.547 29.4705 510.547 25.737C510.547 21.9103 508.166 19.1336 504.07 19.1336H493.399V19.1336Z" fill="white"/>
<path d="M552.842 20.1894H533.597V1.0498H592V20.1836H572.848V71.7514H552.842V20.1894Z" fill="white"/>
<path d="M444.529 1.0498H425.191L410.227 43.2783L410.221 43.1616L408.507 43.1441L391.65 43.2958L404.499 59.8803H423.669L403.918 61.047L400.137 71.7631H420.427L423.953 60.1895H445.197L448.531 71.7631H468.822L444.529 1.0498ZM428.717 43.0508L434.816 23.532L440.724 43.0508H428.717Z" fill="white"/>
</svg>
