<svg width="315" height="135" viewBox="0 0 315 135" fill="none" xmlns="http://www.w3.org/2000/svg">
<path d="M156.525 70.1019C174.548 70.1019 189.158 55.5032 189.158 37.4948C189.158 19.4864 174.548 4.8877 156.525 4.8877C138.502 4.8877 123.892 19.4864 123.892 37.4948C123.892 55.5032 138.502 70.1019 156.525 70.1019Z" fill="white"/>
<path d="M156.525 75.05C135.824 75.05 119 58.2398 119 37.5548C119 16.8699 135.824 0 156.525 0C177.226 0 194.05 16.8102 194.05 37.4952C194.05 58.1801 177.226 75.05 156.525 75.05ZM156.525 2.38443C137.136 2.38443 121.386 18.1217 121.386 37.4952C121.386 56.8687 137.136 72.606 156.525 72.606C175.914 72.606 191.664 56.8687 191.664 37.4952C191.664 18.1217 175.914 2.38443 156.525 2.38443Z" fill="white"/>
<path opacity="0.3" d="M170.187 24.023C167.92 21.5789 164.46 20.3867 159.747 20.3867H152.707H145.13H138.389L145.071 26.7055H152.707L145.13 28.2553H138.389L145.071 34.5741H145.13H152.707L145.13 36.124H138.389L145.071 42.4427H145.13H152.707L145.13 43.9926V55.9148H155.093V45.2444H159.15C164.161 45.2444 167.8 44.1118 170.067 41.8466C172.394 39.5814 173.587 36.6009 173.587 33.0242C173.587 29.4476 172.454 26.4074 170.187 24.023ZM159.568 36.3028H155.093V29.4476H159.687C161.775 29.4476 163.266 30.9378 163.266 32.905C163.266 34.8721 161.954 36.3028 159.568 36.3028Z" fill="white"/>
<path d="M170.783 23.4273C168.516 20.9832 165.056 19.791 160.343 19.791H153.244H145.667H138.985L145.667 26.1098H153.303L145.727 27.6596H138.985L145.608 33.9784H145.667H153.244L145.667 35.5283H138.985L145.667 41.847H145.727H153.303L145.727 43.3969V55.3191H155.69V44.7083H159.747C164.758 44.7083 168.397 43.5757 170.664 41.3105C172.991 39.0453 174.184 36.0648 174.184 32.4881C174.184 28.9115 173.05 25.8117 170.783 23.4273ZM160.164 35.7667H155.63V28.9115H160.224C162.312 28.9115 163.803 30.4017 163.803 32.3689C163.863 34.2764 162.491 35.7667 160.164 35.7667Z" fill="#FF305C"/>
<path d="M3.21698 96.52H16.777C20.0303 96.52 22.5503 97.3067 24.337 98.88C26.1237 100.427 27.017 102.533 27.017 105.2C27.017 107.84 26.1103 109.947 24.297 111.52C22.4836 113.093 19.977 113.88 16.777 113.88H10.737V125H3.21698V96.52ZM15.777 108.28C18.6037 108.28 20.017 107.28 20.017 105.28C20.017 104.267 19.6703 103.507 18.977 103C18.3103 102.467 17.2437 102.2 15.777 102.2H10.737V108.28H15.777ZM30.1998 95.56H37.4398V125H30.1998V95.56ZM63.1623 104.68V125H56.0423V122.24C55.4556 123.2 54.6023 123.96 53.4823 124.52C52.3623 125.053 51.1356 125.32 49.8023 125.32C48.069 125.32 46.5223 124.893 45.1623 124.04C43.8023 123.187 42.7356 121.973 41.9623 120.4C41.2156 118.8 40.8423 116.96 40.8423 114.88C40.8423 112.773 41.229 110.907 42.0023 109.28C42.7756 107.653 43.8423 106.387 45.2023 105.48C46.5623 104.573 48.0956 104.12 49.8023 104.12C51.1356 104.12 52.349 104.413 53.4423 105C54.5623 105.56 55.429 106.32 56.0423 107.28V104.68H63.1623ZM52.0423 119.92C53.3223 119.92 54.309 119.48 55.0023 118.6C55.6956 117.72 56.0423 116.453 56.0423 114.8C56.0423 113.12 55.6956 111.84 55.0023 110.96C54.309 110.053 53.3223 109.6 52.0423 109.6C50.789 109.6 49.8023 110.067 49.0823 111C48.3623 111.907 48.0023 113.2 48.0023 114.88C48.0023 116.507 48.349 117.76 49.0423 118.64C49.7356 119.493 50.7356 119.92 52.0423 119.92ZM88.4654 104.68L79.1454 125.72C77.9188 128.467 76.3721 130.467 74.5054 131.72C72.6654 133 70.3854 133.8 67.6654 134.12L65.9854 128.6C67.8521 128.227 69.2521 127.747 70.1854 127.16C71.1188 126.573 71.8254 125.76 72.3054 124.72L72.8254 123.6L64.5454 104.68H72.0654L76.6254 116.4L81.3454 104.68H88.4654ZM108.139 115.56H95.3795C95.5128 117.133 95.9661 118.267 96.7395 118.96C97.5128 119.653 98.6461 120 100.139 120C101.153 120 102.166 119.84 103.179 119.52C104.193 119.173 105.113 118.707 105.939 118.12L107.779 122.92C106.766 123.667 105.539 124.253 104.099 124.68C102.659 125.107 101.219 125.32 99.7795 125.32C97.4595 125.32 95.4461 124.893 93.7395 124.04C92.0328 123.187 90.7261 121.973 89.8195 120.4C88.9128 118.8 88.4595 116.92 88.4595 114.76C88.4595 112.707 88.8861 110.88 89.7395 109.28C90.6195 107.653 91.8195 106.387 93.3395 105.48C94.8861 104.573 96.6461 104.12 98.6195 104.12C100.539 104.12 102.219 104.547 103.659 105.4C105.099 106.253 106.206 107.48 106.979 109.08C107.753 110.653 108.139 112.493 108.139 114.6V115.56ZM98.8195 109.08C97.0328 109.08 95.9128 110.12 95.4595 112.2H101.939C101.673 110.12 100.633 109.08 98.8195 109.08ZM124.329 104.2C125.316 104.2 126.076 104.347 126.609 104.64V111.24C125.462 110.707 124.356 110.44 123.289 110.44C120.249 110.44 118.729 111.893 118.729 114.8V125H111.489V110.52C111.489 108.333 111.382 106.387 111.169 104.68H117.969L118.409 108.08C118.889 106.827 119.662 105.867 120.729 105.2C121.796 104.533 122.996 104.2 124.329 104.2ZM137.554 96.52V101.16C137.554 102.92 137.234 104.507 136.594 105.92C135.981 107.307 134.914 108.747 133.394 110.24L130.714 108.08C131.461 107.307 132.048 106.6 132.474 105.96C132.901 105.293 133.208 104.627 133.394 103.96H129.994V96.52H137.554ZM148.712 125.32C144.659 125.32 141.459 124.507 139.112 122.88L140.952 117.96C142.046 118.707 143.286 119.293 144.672 119.72C146.059 120.12 147.419 120.32 148.752 120.32C149.579 120.32 150.219 120.2 150.672 119.96C151.126 119.72 151.352 119.387 151.352 118.96C151.352 118.587 151.179 118.293 150.832 118.08C150.512 117.84 149.886 117.627 148.952 117.44L145.672 116.68C143.592 116.253 142.086 115.587 141.152 114.68C140.246 113.747 139.792 112.467 139.792 110.84C139.792 109.533 140.179 108.373 140.952 107.36C141.726 106.347 142.792 105.56 144.152 105C145.539 104.413 147.126 104.12 148.912 104.12C150.379 104.12 151.819 104.333 153.232 104.76C154.646 105.187 155.966 105.787 157.192 106.56L155.272 111.36C154.206 110.667 153.112 110.133 151.992 109.76C150.872 109.387 149.819 109.2 148.832 109.2C148.032 109.2 147.406 109.333 146.952 109.6C146.499 109.84 146.272 110.2 146.272 110.68C146.272 110.973 146.406 111.213 146.672 111.4C146.939 111.56 147.446 111.733 148.192 111.92L151.592 112.68C153.752 113.187 155.299 113.933 156.232 114.92C157.192 115.88 157.672 117.2 157.672 118.88C157.672 120.88 156.872 122.453 155.272 123.6C153.699 124.747 151.512 125.32 148.712 125.32ZM172.787 96.52H180.307V118.92H192.347V125H172.787V96.52ZM214.077 115.56H201.317C201.45 117.133 201.904 118.267 202.677 118.96C203.45 119.653 204.584 120 206.077 120C207.09 120 208.104 119.84 209.117 119.52C210.13 119.173 211.05 118.707 211.877 118.12L213.717 122.92C212.704 123.667 211.477 124.253 210.037 124.68C208.597 125.107 207.157 125.32 205.717 125.32C203.397 125.32 201.384 124.893 199.677 124.04C197.97 123.187 196.664 121.973 195.757 120.4C194.85 118.8 194.397 116.92 194.397 114.76C194.397 112.707 194.824 110.88 195.677 109.28C196.557 107.653 197.757 106.387 199.277 105.48C200.824 104.573 202.584 104.12 204.557 104.12C206.477 104.12 208.157 104.547 209.597 105.4C211.037 106.253 212.144 107.48 212.917 109.08C213.69 110.653 214.077 112.493 214.077 114.6V115.56ZM204.757 109.08C202.97 109.08 201.85 110.12 201.397 112.2H207.877C207.61 110.12 206.57 109.08 204.757 109.08ZM238.826 104.68V125H231.706V122.24C231.12 123.2 230.266 123.96 229.146 124.52C228.026 125.053 226.8 125.32 225.466 125.32C223.733 125.32 222.186 124.893 220.826 124.04C219.466 123.187 218.4 121.973 217.626 120.4C216.88 118.8 216.506 116.96 216.506 114.88C216.506 112.773 216.893 110.907 217.666 109.28C218.44 107.653 219.506 106.387 220.866 105.48C222.226 104.573 223.76 104.12 225.466 104.12C226.8 104.12 228.013 104.413 229.106 105C230.226 105.56 231.093 106.32 231.706 107.28V104.68H238.826ZM227.706 119.92C228.986 119.92 229.973 119.48 230.666 118.6C231.36 117.72 231.706 116.453 231.706 114.8C231.706 113.12 231.36 111.84 230.666 110.96C229.973 110.053 228.986 109.6 227.706 109.6C226.453 109.6 225.466 110.067 224.746 111C224.026 111.907 223.666 113.2 223.666 114.88C223.666 116.507 224.013 117.76 224.706 118.64C225.4 119.493 226.4 119.92 227.706 119.92ZM264.769 104.68V123.72C264.769 127.053 263.769 129.587 261.769 131.32C259.769 133.08 256.836 133.96 252.969 133.96C249.663 133.96 246.796 133.373 244.369 132.2L245.449 126.92C246.649 127.453 247.876 127.867 249.129 128.16C250.409 128.48 251.609 128.64 252.729 128.64C254.383 128.64 255.596 128.28 256.369 127.56C257.169 126.867 257.569 125.773 257.569 124.28V121.28C256.903 122.16 255.996 122.907 254.849 123.52C253.729 124.133 252.529 124.44 251.249 124.44C249.516 124.44 247.956 124.027 246.569 123.2C245.209 122.347 244.143 121.16 243.369 119.64C242.596 118.093 242.209 116.307 242.209 114.28C242.209 112.28 242.596 110.52 243.369 109C244.143 107.453 245.209 106.253 246.569 105.4C247.956 104.547 249.516 104.12 251.249 104.12C252.609 104.12 253.849 104.4 254.969 104.96C256.089 105.52 256.956 106.28 257.569 107.24V104.68H264.769ZM253.489 119.04C254.769 119.04 255.769 118.627 256.489 117.8C257.209 116.947 257.569 115.773 257.569 114.28C257.569 112.84 257.209 111.707 256.489 110.88C255.769 110.027 254.769 109.6 253.489 109.6C252.209 109.6 251.196 110.013 250.449 110.84C249.729 111.667 249.369 112.813 249.369 114.28C249.369 115.747 249.743 116.907 250.489 117.76C251.236 118.613 252.236 119.04 253.489 119.04ZM289.468 104.68V125H282.388V122.28C281.081 124.307 279.148 125.32 276.588 125.32C274.001 125.32 272.068 124.6 270.788 123.16C269.535 121.72 268.908 119.52 268.908 116.56V104.68H276.148V116.76C276.148 118.76 277.015 119.76 278.748 119.76C279.761 119.76 280.575 119.4 281.188 118.68C281.828 117.96 282.148 117 282.148 115.8V104.68H289.468ZM312.554 115.56H299.794C299.927 117.133 300.38 118.267 301.154 118.96C301.927 119.653 303.06 120 304.554 120C305.567 120 306.58 119.84 307.594 119.52C308.607 119.173 309.527 118.707 310.354 118.12L312.194 122.92C311.18 123.667 309.954 124.253 308.514 124.68C307.074 125.107 305.634 125.32 304.194 125.32C301.874 125.32 299.86 124.893 298.154 124.04C296.447 123.187 295.14 121.973 294.234 120.4C293.327 118.8 292.874 116.92 292.874 114.76C292.874 112.707 293.3 110.88 294.154 109.28C295.034 107.653 296.234 106.387 297.754 105.48C299.3 104.573 301.06 104.12 303.034 104.12C304.954 104.12 306.634 104.547 308.074 105.4C309.514 106.253 310.62 107.48 311.394 109.08C312.167 110.653 312.554 112.493 312.554 114.6V115.56ZM303.234 109.08C301.447 109.08 300.327 110.12 299.874 112.2H306.354C306.087 110.12 305.047 109.08 303.234 109.08Z" fill="white"/>
</svg>
