<svg width="550" height="351" viewBox="0 0 550 351" fill="none" xmlns="http://www.w3.org/2000/svg">
<g clip-path="url(#clip0)">
<path d="M50.2868 349.838V304.284H63.3023V337.611H84.7974V349.838H50.2868Z" fill="#FF305C"/>
<path d="M116.744 349.838L114.575 342.344H100.771L98.4045 349.838H85.389L101.56 304.284H113.984L129.76 349.838H116.744ZM111.617 331.498L107.87 318.877L103.926 331.498H111.617Z" fill="#FF305C"/>
<path d="M169.595 304.481L153.621 335.048V350.035H140.803V335.048L125.027 304.481H140.014L147.114 320.455L154.41 304.481H169.595Z" fill="#FF305C"/>
<path d="M173.736 349.838V304.284H207.852V316.116H186.752V321.244H206.275V333.076H186.752V338.203H207.655V350.035H173.736V349.838Z" fill="#FF305C"/>
<path d="M239.01 349.838L231.714 335.639H227.77V349.838H214.952V304.284H234.869C240.588 304.284 244.927 305.665 247.687 308.623C250.645 311.581 252.026 315.13 252.026 319.666C252.026 325.385 249.659 330.512 244.138 333.273L253.406 349.641H239.01V349.838ZM227.967 316.116V324.596H234.475C237.433 324.596 239.01 322.624 239.01 320.258C239.01 317.891 237.433 315.919 234.869 315.919H227.967V316.116Z" fill="#FF305C"/>
<path d="M266.619 343.133L272.732 333.667C277.071 337.217 281.409 338.992 286.142 338.992C289.1 338.992 290.48 338.203 290.48 336.625C290.48 335.639 289.297 334.653 287.128 333.865C286.536 333.667 285.748 333.47 284.367 333.076C281.804 332.287 279.24 331.498 277.268 330.512C272.141 327.948 269.577 324.004 269.577 318.483C269.577 314.341 271.155 310.792 274.507 308.031C277.859 305.27 282.001 303.89 287.325 303.89C293.636 303.89 299.157 305.664 304.285 309.411L298.566 319.271C297.185 318.285 295.411 317.497 293.241 316.905C291.072 316.313 289.1 315.919 287.522 315.919C284.564 315.919 283.184 316.905 283.184 318.088C283.184 319.469 284.564 320.257 286.734 320.849C291.269 322.23 294.227 323.216 295.411 323.807C301.524 326.174 304.679 330.315 304.679 336.034C304.679 340.372 302.904 343.922 299.552 346.683C296.199 349.444 291.664 350.824 285.945 350.824C278.254 350.627 271.943 348.26 266.619 343.133Z" fill="#FF305C"/>
<path d="M263.661 318.878V296.396H253.603V308.426L263.661 318.878Z" fill="#FF305C"/>
<path d="M40.8211 309.214C37.863 306.059 33.5246 304.481 27.4113 304.481H18.3399H8.67695H0L8.47974 312.567H18.1427L8.47974 314.539H0L8.47974 322.624H18.1427L8.47974 324.596H0L8.47974 332.682H18.1427L8.47974 334.654V349.838H21.298V336.231H26.4252C32.7357 336.231 37.4686 334.851 40.4267 331.893C43.3847 328.935 44.9624 325.188 44.9624 320.652C44.9624 316.116 43.5819 312.172 40.8211 309.214ZM27.2141 324.991H21.4952V316.116H27.4113C30.1721 316.116 31.9469 318.088 31.9469 320.455C31.9469 323.019 30.1721 324.991 27.2141 324.991Z" fill="#FF305C"/>
<g opacity="0.85">
<path opacity="0.85" d="M317.695 350.036V304.482H321.441V346.29H346.881V349.839H317.695V350.036Z" fill="#FF305C"/>
<path opacity="0.85" d="M353.98 350.036V304.482H381.391V308.032H357.727V325.189H379.814V328.738H357.727V346.487H381.391V350.036H353.98Z" fill="#FF305C"/>
<path opacity="0.85" d="M419.846 350.036L414.521 336.232H395.393L390.068 350.036H385.927L404.07 304.482H406.042L423.987 350.036H419.846ZM404.858 311.187L396.576 332.683H413.338L404.858 311.187Z" fill="#FF305C"/>
<path opacity="0.85" d="M433.453 343.923C429.114 339.584 426.945 333.865 426.945 327.161C426.945 320.258 429.312 314.737 433.847 310.398C438.383 305.863 443.905 303.693 450.61 303.693C454.356 303.693 457.906 304.482 461.456 306.06C464.808 307.637 467.569 309.609 469.541 312.173L466.78 314.54C463.033 310.004 456.92 307.243 450.61 307.243C445.088 307.243 440.355 309.215 436.608 312.962C432.861 316.709 430.889 321.442 430.889 327.161C430.889 332.879 432.664 337.612 436.411 341.359C440.158 345.106 444.693 346.881 450.412 346.881C456.723 346.881 462.442 344.317 467.372 339.387V328.738H449.229V325.386H470.922V340.965C465.4 347.472 458.498 350.628 450.215 350.628C443.313 350.628 437.791 348.458 433.453 343.923Z" fill="#FF305C"/>
<path opacity="0.85" d="M479.796 304.482H483.542V334.655C483.542 342.543 487.881 347.078 495.178 347.078C502.474 347.078 506.813 342.543 506.813 334.655V304.482H510.559V335.246C510.559 340.176 509.179 343.923 506.418 346.684C503.657 349.445 499.91 350.825 495.375 350.825C490.839 350.825 487.092 349.445 484.134 346.684C481.373 343.923 479.993 340.176 479.993 335.246V304.482H479.796Z" fill="#FF305C"/>
<path opacity="0.85" d="M522.392 350.036V304.482H549.803V308.032H526.138V325.189H548.225V328.738H526.138V346.487H549.803V350.036H522.392Z" fill="#FF305C"/>
</g>
<path d="M274.901 231.911C334.476 231.911 382.772 183.616 382.772 124.041C382.772 64.466 334.476 16.1709 274.901 16.1709C215.326 16.1709 167.031 64.466 167.031 124.041C167.031 183.616 215.326 231.911 274.901 231.911Z" fill="#FF305C"/>
<path d="M274.901 248.279C206.472 248.279 150.861 192.668 150.861 124.238C150.861 55.8085 206.472 0 274.901 0C343.331 0 398.942 55.6113 398.942 124.041C398.942 192.47 343.331 248.279 274.901 248.279ZM274.901 7.88813C210.81 7.88813 158.749 59.9498 158.749 124.041C158.749 188.132 210.81 240.194 274.901 240.194C338.992 240.194 391.054 188.132 391.054 124.041C391.054 59.9498 338.992 7.88813 274.901 7.88813Z" fill="#FF305C"/>
<path opacity="0.3" d="M320.061 79.4728C312.567 71.3874 301.129 67.4434 285.55 67.4434H262.28H237.236H214.952L237.038 88.3469H262.28L237.236 93.4742H214.952L237.038 114.378H237.236H262.28L237.236 119.505H214.952L237.038 140.409H237.236H262.28L237.236 145.536V184.977H270.169V149.677H283.578C300.143 149.677 312.173 145.93 319.667 138.437C327.357 130.943 331.302 121.083 331.302 109.25C331.302 97.4183 327.555 87.3609 320.061 79.4728ZM284.959 120.097H270.169V97.4183H285.353C292.255 97.4183 297.185 102.348 297.185 108.856C297.185 115.364 292.847 120.097 284.959 120.097Z" fill="white"/>
<path d="M322.033 77.5011C314.539 69.4157 303.101 65.4717 287.522 65.4717H264.055H239.01H216.924L239.01 86.3752H264.252L239.208 91.5025H216.924L238.813 112.406H239.01H264.055L239.01 117.533H216.924L239.01 138.437H239.208H264.252L239.208 143.564V183.005H272.141V147.903H285.55C302.115 147.903 314.145 144.156 321.639 136.662C329.33 129.168 333.274 119.308 333.274 107.476C333.274 95.6438 329.527 85.3892 322.033 77.5011ZM286.931 118.322H271.943V95.6438H287.128C294.03 95.6438 298.96 100.574 298.96 107.082C299.157 113.392 294.622 118.322 286.931 118.322Z" fill="white"/>
</g>
<defs>
<clipPath id="clip0">
<rect width="550" height="350.825" fill="white"/>
</clipPath>
</defs>
</svg>
