<svg width="312" height="30" viewBox="0 0 312 30" fill="none" xmlns="http://www.w3.org/2000/svg">
<g clip-path="url(#clip0)">
<path d="M124.78 20.5098V29.0498H132.76V20.0098L124.78 20.5098Z" fill="white"/>
<path d="M145.61 8.14996V0.709961H124.78V11.94H116.98L124.78 19.31H132.76H144.15V11.95V11.94H132.76V8.14996H145.61Z" fill="white"/>
<path d="M152.35 27.1902C149.99 25.3702 148.48 22.1202 148.48 17.8302V0.700195H156.6V17.8302C156.6 20.6502 158.3 22.0502 160.6 22.0502C162.9 22.0502 164.6 20.6502 164.6 17.8302V0.700195H172.72V17.8302C172.72 26.7202 166.54 29.7802 160.58 29.7802C157.63 29.8202 154.75 28.9102 152.35 27.1902Z" fill="white"/>
<path d="M195.58 0.700195H203.47V29.3102H197.17L185.22 15.1602V29.3102H177.33V0.700195H183.33L195.58 15.0102V0.700195Z" fill="white"/>
<path d="M226.58 0.700195H234.46V29.3102H228.16L216.16 15.1902V29.3102H208.28V0.700195H214.28L226.58 15.0102V0.700195Z" fill="white"/>
<path d="M239.28 29.3102V0.700195H260.66V8.1302H247.4V11.3102H259.66V18.6902H247.4V21.8602H260.58V29.3102H239.28Z" fill="white"/>
<path d="M264.91 29.3102V0.700195H273.03V21.6202H286.53V29.3102H264.91Z" fill="white"/>
<path d="M287.55 25.0602L291.42 19.0602C293.74 21.1202 296.71 22.3002 299.81 22.3802C301.63 22.3802 302.55 21.8802 302.55 20.8802C302.55 20.2202 301.82 19.6002 300.39 19.1002C300.04 18.9802 299.46 18.7902 298.61 18.5602C297.09 18.1302 295.6 17.5902 294.16 16.9302C291.15 15.6502 289.25 12.6502 289.37 9.39018C289.33 6.84018 290.49 4.43018 292.5 2.86018C294.77 1.07018 297.61 0.150183 300.5 0.270183C304.32 0.230183 308.06 1.46018 311.11 3.76018L307.55 9.98018C306.53 9.29018 305.41 8.77018 304.23 8.43018C303.07 8.04018 301.86 7.82018 300.63 7.78018C298.81 7.78018 297.96 8.40018 297.96 9.17018C297.96 10.1002 298.81 10.4802 300.2 10.9102C303.1 11.8002 304.92 12.4202 305.7 12.7302C309.56 14.2402 311.5 16.8302 311.5 20.4202C311.53 23.0402 310.35 25.5302 308.29 27.1502C305.82 29.0102 302.78 29.9402 299.7 29.7802C295.18 29.8902 290.81 28.1902 287.55 25.0602Z" fill="white"/>
<path d="M0 24.0901L3 21.1601C4.36 23.8601 7.12 25.5701 10.14 25.5701C13.14 25.5701 15.05 23.8201 15.05 21.6301C15.05 20.1901 14.12 18.9401 12.21 17.9301C11.74 17.6901 10.76 17.2601 9.28 16.6401C7.8 16.0201 6.71 15.4301 5.97 15.0001C3.04 13.2501 1.6 10.9101 1.6 8.00013C1.56 5.82013 2.48 3.74013 4.11 2.31013C5.92 0.730131 8.27 -0.0898688 10.67 0.0101312C14.09 -0.0998688 17.35 1.44013 19.44 4.14013L16.67 7.22013C15.27 5.31013 13.04 4.20013 10.67 4.22013C8.18 4.22013 6.39 5.58013 6.39 7.73013C6.39 9.09013 7.2 10.2601 8.8 11.1601C9.31 11.4301 10.36 11.9801 12.04 12.7601C13.72 13.5401 14.89 14.0801 15.59 14.4701C18.51 16.0701 20 18.3701 20 21.3401C20.04 23.6801 19.02 25.9201 17.23 27.4201C15.23 29.0301 12.7 29.8701 10.13 29.7601C5.97 29.8501 2.1 27.6801 0 24.0901Z" fill="#FF305C"/>
<path d="M33.7901 0.530273C36.9501 0.530273 39.3301 1.43027 40.9301 3.22027C42.5601 4.96027 43.4501 7.27027 43.3901 9.66027C43.4401 12.0403 42.5201 14.3503 40.8501 16.0503C39.1701 17.8103 36.6801 18.6703 33.4001 18.6703H28.3301V29.3103H23.8501V0.530273H33.7901ZM33.5201 14.5303C36.9901 14.5303 38.8201 12.2703 38.8201 9.58027C38.9701 7.05027 37.0401 4.89027 34.5201 4.74027C34.3501 4.73027 34.1701 4.73027 33.9901 4.74027H28.3301V14.5303H33.5201Z" fill="#FF305C"/>
<path d="M62.3399 29.3103L59.6099 22.3103H49.0099L46.2799 29.3103H41.4399L52.9099 0.530273H55.8299L67.1799 29.3103H62.3399ZM54.3399 7.63027L50.4399 18.0803H58.2399L54.3399 7.63027Z" fill="#FF305C"/>
<path d="M85.7199 29.3103L78.7199 18.0003H74.8999V29.3103H70.3999V0.530273H80.5799C83.5799 0.530273 85.8799 1.39027 87.4799 3.11027C89.0699 4.78027 89.9399 7.01027 89.8999 9.31027C89.9699 13.2503 87.2899 16.7003 83.4599 17.6103L91.1099 29.3103H85.7199ZM74.8799 4.78027V13.8703H79.8799C83.4999 13.8703 85.2599 11.8703 85.2599 9.27027C85.3599 6.88027 83.4999 4.87027 81.1099 4.77027C80.9299 4.76027 80.7599 4.77027 80.5799 4.78027H74.8799Z" fill="#FF305C"/>
<path d="M112.72 29.3103L103.29 17.1103L99.46 21.6703V29.3103H94.98V0.530273H99.46V15.5303L111.94 0.530273H117.33L106.21 13.9503L118.26 29.3103H112.72Z" fill="#FF305C"/>
</g>
<defs>
<clipPath id="clip0">
<rect width="311.5" height="29.8" fill="white"/>
</clipPath>
</defs>
</svg>
