<svg width="758" height="66" viewBox="0 0 758 66" fill="none" xmlns="http://www.w3.org/2000/svg">
<path d="M0 53.0735L6.71598 46.6103C10.2507 53.0735 16.1935 56.3382 22.4897 56.3382C29.0289 56.3382 33.3369 52.4779 33.3369 47.6471C33.3369 44.4706 31.2602 41.7132 27.0407 39.4853C26.0023 38.9559 23.8594 38.0294 20.5677 36.6397C17.3864 35.1838 14.89 33.9706 13.2552 33.0221C6.78226 29.1618 3.601 23.9779 3.601 17.625C3.601 12.6397 5.41255 8.42647 9.12401 5.07353C12.8355 1.72059 17.6515 0 23.6164 0C31.6358 0 38.0867 3.02206 42.9911 9.1103L36.8716 15.9044C33.3369 11.5147 28.9406 9.35294 23.6827 9.35294C18.1597 9.35294 14.2052 12.375 14.2052 17.0956C14.2052 20.1176 16.0167 22.6985 19.5515 24.6618C20.6782 25.2574 22.9978 26.4706 26.7093 28.1912C30.4207 29.8235 33.0055 31.125 34.552 31.9632C41.0028 35.4926 44.2945 40.5662 44.2945 47.0956C44.2945 52.5221 42.2179 57 38.175 60.5074C34.1322 63.9485 28.8743 65.6691 22.4897 65.6691C13.1889 65.7353 4.57305 61.2574 0 53.0735Z" fill="#262626"/>
<path d="M74.6492 1.125C81.6303 1.125 86.8882 3.11029 90.4229 7.05882C94.046 10.9191 95.8575 15.6618 95.8575 21.2426C95.8575 26.8235 93.9576 31.4779 90.2682 35.3603C86.5568 39.2206 81.0559 41.1176 73.8097 41.1176H62.609V64.6985H52.6897V1.125H74.6492ZM74.0527 32.0073C81.7186 32.0073 85.7615 27.0221 85.7615 21.0882C85.7615 15.1544 81.8954 10.4338 75.091 10.4338H62.5869V32.0294H74.0527V32.0073Z" fill="#262626"/>
<path d="M137.722 64.6985L131.691 49.0368H108.273L102.242 64.6985H91.5715L116.889 1.125H123.34L148.414 64.6985H137.722ZM120.07 16.8529L111.454 39.9044H128.686L120.07 16.8529Z" fill="#262626"/>
<path d="M189.373 64.6985L173.864 39.75H165.425V64.6985H155.528V1.125H178.018C184.645 1.125 189.726 3.02206 193.261 6.79412C196.796 10.5882 198.607 15.1323 198.607 20.4706C198.607 28.8088 193.614 36.3088 184.402 38.8015L201.369 64.6985H189.373ZM165.425 10.5V30.5515H176.449C184.468 30.5515 188.334 26.1618 188.334 20.4044C188.334 14.8235 184.535 10.5221 177.995 10.5221H165.425V10.5Z" fill="#262626"/>
<path d="M249.021 64.6985L228.166 37.6765L219.727 47.7353V64.6765H209.83V1.125H219.727V34.2353L247.298 1.125H259.184L234.639 30.7279L261.26 64.7206H249.021V64.6985Z" fill="#262626"/>
<path d="M334.562 64.8752V1.08105H381.507V17.8237H352.545V26.3605H378.216V42.9266H352.545V64.8531H334.562V64.8752Z" fill="white"/>
<path d="M387.406 64.8752V1.08105H434.352V17.8237H405.389V26.3605H431.06V42.9266H405.389V64.8531H387.406V64.8752Z" fill="white"/>
<path d="M440.361 1.08105H458.52V64.8752H440.361V1.08105Z" fill="white"/>
<path d="M467.998 64.8752V1.08105H486.157V47.7796H516.335V64.8752H467.998Z" fill="white"/>
<path d="M520.135 1.08105H538.294V64.8752H520.135V1.08105Z" fill="white"/>
<path d="M585.351 64.8752L582.324 54.4193H563.038L559.834 64.8752H541.41L564.142 1.08105H581.683L603.731 64.8752H585.351ZM578.259 38.9781L572.891 21.3752L567.368 38.9781H578.259Z" fill="white"/>
<path d="M614.137 18.3531H596.662V1.08105H649.661V18.3531H632.274V64.8752H614.115V18.3531H614.137Z" fill="white"/>
<path d="M653.505 64.8752V1.08105H701.312V17.6472H671.664V24.7281H699.081V41.2061H671.664V48.2869H701.135V64.8531H653.505V64.8752Z" fill="white"/>
<path d="M704.471 55.4778L713.109 42.0881C719.074 47.0072 725.392 49.5219 731.865 49.5219C735.93 49.5219 738.007 48.3969 738.007 46.1469C738.007 44.669 736.372 43.3014 733.169 42.1764C732.396 41.9117 731.092 41.4925 729.192 40.9631C725.481 39.8381 722.012 38.7131 719.251 37.3455C712.071 33.8161 708.536 28.1911 708.536 20.5146C708.536 14.6469 710.878 9.81606 715.539 5.93371C720.201 2.05136 726.166 0.154297 733.434 0.154297C742.249 0.154297 750.113 2.73518 757.117 7.919L749.163 21.8161C747.263 20.4264 744.745 19.3014 741.718 18.3528C738.692 17.4043 736.019 16.8969 733.677 16.8969C729.612 16.8969 727.712 18.2866 727.712 20.0072C727.712 22.0808 729.612 22.9411 732.727 23.8896C739.2 25.8749 743.265 27.2646 745.01 27.9484C753.648 31.3234 757.978 37.1028 757.978 45.1322C757.978 51.1764 755.548 56.1837 750.798 60.1543C746.048 64.0367 739.642 66.0219 731.6 66.0219C720.819 65.9999 711.828 62.4705 704.471 55.4778Z" fill="white"/>
<path d="M309.112 1.08105H291.571L278.028 39.0443H256.334L272.572 54.3752V54.3972H301.225V54.4193H309.73L312.757 64.8752H331.182L309.112 1.08105ZM294.774 38.9781L300.297 21.3752L305.666 38.9781H294.774Z" fill="white"/>
<path d="M271.842 56.4489L268.838 64.8753H287.241L290.157 55.4121L271.842 56.4489Z" fill="white"/>
</svg>
