<svg width="507" height="73" viewBox="0 0 507 73" fill="none" xmlns="http://www.w3.org/2000/svg">
<path d="M0 58.954L7.4157 51.7962C11.3187 58.954 17.8806 62.5819 24.8085 62.5819C32.029 62.5819 36.7858 58.2921 36.7858 52.9238C36.7858 49.3939 34.4928 46.3297 29.858 43.8539C28.7115 43.2656 26.3453 42.2361 22.735 40.6917C19.1979 39.0739 16.4414 37.7502 14.6363 36.6961C7.51328 32.4063 3.97618 26.6702 3.97618 19.586C3.97618 14.046 5.97647 9.364 10.0502 5.63801C14.1728 1.91202 19.4906 0 26.0525 0C34.8831 0 42.0305 3.35829 47.4459 10.1239L40.6888 17.6739C36.7858 12.7958 31.9314 10.4181 26.1501 10.4181C20.0761 10.4181 15.6852 13.7764 15.6852 19.0222C15.6852 22.3805 17.6855 25.224 21.5885 27.4302C22.8326 28.092 25.3939 29.4402 29.4677 31.3522C33.5658 33.1662 36.4199 34.6125 38.1275 35.544C45.2504 39.4661 48.8607 45.1041 48.8607 52.36C48.8607 58.3902 46.5677 63.3418 42.1036 67.2639C37.6396 71.088 31.8339 73 24.8085 73C14.5387 73 5.04951 68.0238 0 58.954Z" fill="#FF305C"/>
<path d="M82.3778 1.25C90.0862 1.25 95.8675 3.45618 99.7705 7.84402C103.771 12.1338 105.771 17.4041 105.771 23.6059C105.771 29.8078 103.674 34.98 99.5998 39.2698C95.5016 43.5596 89.4276 45.6677 81.4264 45.6677H69.0588V71.8477H58.1304V1.25H82.3778ZM81.7191 35.5438C90.1838 35.5438 94.6478 30.0039 94.6478 23.4098C94.6478 16.8158 90.3789 11.57 82.8656 11.57H69.0832V35.5438H81.7191Z" fill="#FF305C"/>
<path d="M151.997 71.8477L145.338 54.4679H119.481L112.821 71.8477H101.039L128.994 1.25H136.117L163.78 71.8477H151.997ZM132.507 18.7278L122.993 44.344H142.02L132.507 18.7278Z" fill="#FF305C"/>
<path d="M209.006 71.8477L191.882 44.1479H182.563V71.8477H171.635V1.25H196.443C203.761 1.25 209.372 3.35813 213.275 7.54987C217.178 11.7661 219.178 16.8158 219.178 22.748C219.178 32.0139 213.665 40.3239 203.493 43.0939L222.227 71.8477H209.006ZM182.563 11.6681V33.926H194.736C203.591 33.926 207.86 29.0478 207.86 22.6499C207.86 16.4481 203.688 11.6681 196.443 11.6681H182.563Z" fill="#FF305C"/>
<path d="M274.82 71.8477L251.817 41.8437L242.498 53.0217V71.8477H231.57V1.25H242.498V38.0442L272.917 1.25H286.041L258.94 34.1221L288.31 71.8722H274.82V71.8477Z" fill="#FF305C"/>
<path d="M406.864 71.7485L395.764 49.7357H389.69V71.7485H369.956V1.29785H400.497C409.23 1.29785 415.865 3.47952 420.329 7.96541C424.793 12.4513 427.062 18.1629 427.062 25.2226C427.062 34.0964 423.256 42.0876 415.011 46.2794L429.33 71.724H406.864V71.7485ZM389.69 19.315V32.552H399.838C404.497 32.552 406.766 29.586 406.766 25.8845C406.766 22.0604 404.4 19.315 400.326 19.315H389.69Z" fill="white"/>
<path d="M443.918 62.4092C436.892 55.3494 433.38 46.6718 433.38 36.4743C433.38 26.2769 436.892 17.5992 443.918 10.6375C450.943 3.57774 459.676 0.0478516 470.19 0.0478516C480.728 0.0478516 489.437 3.57774 496.462 10.6375C503.487 17.5992 507 26.2769 507 36.5724C507 46.7698 503.487 55.4474 496.462 62.4092C489.534 69.3709 480.801 72.9008 470.287 72.9008C459.749 72.9008 450.919 69.3709 443.918 62.4092ZM481.85 48.4857C484.972 45.25 486.582 41.2299 486.509 36.4743C486.412 31.5227 484.802 27.5025 481.679 24.3648C478.557 21.2272 474.654 19.6828 470.19 19.6828C465.628 19.6828 461.75 21.3007 458.627 24.4384C455.505 27.5761 453.895 31.5962 453.895 36.4498C453.895 41.3034 455.505 45.3235 458.627 48.4612C461.75 51.5989 465.653 53.2168 470.19 53.2168C474.825 53.2658 478.728 51.6479 481.85 48.4857Z" fill="white"/>
<path d="M308.923 53.3154V71.7492L328.657 71.7983V52.1143L308.923 53.3154Z" fill="white"/>
<path d="M358.54 8.55373C354.076 3.70013 347.245 1.29785 337.951 1.29785H308.923V33.0423H290.261L308.947 50.7653H308.923H336.805C346.562 50.7408 353.71 48.461 358.247 43.9997C362.906 39.5138 365.175 33.6061 365.175 26.4483C365.175 19.315 363.004 13.3093 358.54 8.55373ZM337.561 33.0423H328.633V19.413H337.732C341.903 19.413 344.855 22.3791 344.855 26.2767C344.879 30.1007 342.22 33.0423 337.561 33.0423Z" fill="white"/>
</svg>
